<svg xmlns="http://www.w3.org/2000/svg" viewBox="0 0 400 300" width="406" height="306" class="illustration styles_illustrationTablet__1DWOa"><g id="_179_coding_outline" data-name="#179_coding_outline"><path d="M172.38,220.26H93.82l-8.4-59.13a10.76,10.76,0,0,1,10.66-12.27h66.16Z" fill="#093f68"></path><path d="M172.38,221.26H93.82a1,1,0,0,1-1-.85l-8.4-59.14a11.77,11.77,0,0,1,11.65-13.41h66.16a1,1,0,0,1,1,.86l10.14,71.4a1,1,0,0,1-.24.8A1,1,0,0,1,172.38,221.26Zm-77.69-2h76.53l-9.85-69.4H96.08A9.75,9.75,0,0,0,86.42,161Z" fill="#093f68"></path><path d="M131.34,158.05h18.22c8.68,0,18.17-1.58,24.32,6,2.75,3.4,3.48,8.21,5.16,12.21,2.63,6.24,7,16.69,14.29,18.72,14.5,4,28.91,1.86,29,1.84a9,9,0,1,1,2.83,17.78,86.38,86.38,0,0,1-12.51.82,91.65,91.65,0,0,1-24.16-3.1c-5.84-1.62-12.69-6.49-17.44-12.38l1.39,21.82h-75V177.7C97.48,166.85,120.48,158.05,131.34,158.05Z" fill="#68e1fd"></path><path d="M172.46,222.79h-75a1,1,0,0,1-1-1V177.7c0-11.93,24.46-20.65,34.85-20.65h18.23c1.26,0,2.54,0,3.83-.06,7.73-.21,15.71-.42,21.27,6.46,2,2.43,2.93,5.47,3.88,8.4.46,1.43.89,2.78,1.42,4.05l0,.12c2.54,6,6.79,16.14,13.59,18a77,77,0,0,0,28.61,1.83,10,10,0,0,1,3.14,19.75,88.16,88.16,0,0,1-12.67.83,91.47,91.47,0,0,1-24.42-3.14c-5.26-1.45-11.29-5.44-16-10.46l1.19,18.87a1,1,0,0,1-.27.75A1,1,0,0,1,172.46,222.79Zm-74-2H171.4L170.08,200a1,1,0,0,1,1.78-.7c4.64,5.76,11.29,10.48,16.93,12a89.66,89.66,0,0,0,23.89,3.06,83.49,83.49,0,0,0,12.35-.81,8,8,0,0,0,6.65-9.16,8,8,0,0,0-9.16-6.64A79,79,0,0,1,193.07,196c-7.73-2.14-12.22-12.8-14.9-19.17l0-.13c-.57-1.35-1-2.8-1.49-4.2-.88-2.77-1.8-5.62-3.53-7.76-4.93-6.12-12.09-5.93-19.66-5.72-1.3,0-2.6.06-3.88.06H131.33c-5.45,0-13.89,2.33-20.54,5.65-7.82,3.92-12.31,8.65-12.31,13Z" fill="#093f68"></path><path d="M120.53,220.46a1,1,0,0,1-1-.89l-4.31-40.5a1,1,0,1,1,2-.21l4.32,40.49a1,1,0,0,1-.89,1.1Z" fill="#093f68"></path><path d="M148.27,171.77s-2,29.94-4.55,36.59l-7.25-36.59Z" fill="#093f68"></path><path d="M143.72,209.36h-.09a1,1,0,0,1-.89-.8L135.49,172a1,1,0,0,1,1-1.19h11.8a1,1,0,0,1,.73.31,1.05,1.05,0,0,1,.27.75c-.09,1.23-2.06,30.17-4.62,36.89A1,1,0,0,1,143.72,209.36Zm-6-36.59,6.15,31c1.7-9,3-26.55,3.35-31Z" fill="#093f68"></path><path d="M125.22,221.71s3.95-17.34,8.38-20.89c2.83-2.27,5.29-2.9,8.65-3.65,1.45-.32,2.73-1.22,4.25-1.51a13.68,13.68,0,0,1,5.22.07,21.77,21.77,0,0,1,8.77,4.31,18.16,18.16,0,0,1,4.73,5c.78,1.31,1.23,3.15.15,4.22s-3,.55-4.08-.49c-.38-.36-.78-.8-1.3-.82a1.84,1.84,0,0,0-.79.22c-3.52,1.7-5.33,4.91-7.24,8.13-.34.58-3.16,6.52-3.69,6.5Z" fill="#ffc9b0"></path><path d="M148.31,223.84h-.09l-23-1.13a1,1,0,0,1-.75-.39,1,1,0,0,1-.17-.83c.16-.72,4.07-17.73,8.73-21.45,2.92-2.35,5.48-3,9.05-3.84a11.24,11.24,0,0,0,1.82-.67,11.69,11.69,0,0,1,2.46-.85,14.73,14.73,0,0,1,5.61.07,22.15,22.15,0,0,1,9.17,4.5,18.82,18.82,0,0,1,5,5.32c.94,1.58,1.5,4,0,5.44s-4,.9-5.46-.47l-.14-.13A2.38,2.38,0,0,0,160,209a1.34,1.34,0,0,0-.31.12c-3.13,1.51-4.83,4.37-6.62,7.41l-.2.33c-.08.13-.28.54-.56,1.1C149.63,223.19,149.12,223.84,148.31,223.84Zm-21.84-3.07,21.43,1c.61-.87,2-3.66,2.57-4.77.31-.62.54-1.07.63-1.22l.2-.33c1.86-3.16,3.79-6.42,7.47-8.19A2.6,2.6,0,0,1,160,207a2.78,2.78,0,0,1,1.83,1l.13.11c.77.73,2.06,1.11,2.69.5s.29-2-.31-3a17,17,0,0,0-4.48-4.76,20.46,20.46,0,0,0-8.36-4.12,12.73,12.73,0,0,0-4.84-.06,9.83,9.83,0,0,0-2,.71,12.51,12.51,0,0,1-2.18.79c-3.4.75-5.65,1.36-8.24,3.45C131.06,204.13,127.79,215.38,126.47,220.77Z" fill="#093f68"></path><path d="M134.38,211.4s4.74-4.8,5.72-4.52,6.52,6.1,11.17,3.28c3-1.85,5.63.62,5.07-3.6s-9-8-9-8" fill="#ffc9b0"></path><path d="M134.38,212.4a1,1,0,0,1-.71-.29,1,1,0,0,1,0-1.41c5.15-5.23,6.24-4.91,6.71-4.78a5.58,5.58,0,0,1,1.51,1c2,1.5,5.77,4.31,8.86,2.43a7.34,7.34,0,0,1,3.59-1,3.11,3.11,0,0,0,1-.15s.18-.24,0-1.48c-.4-3-6.19-6.2-8.39-7.17a1,1,0,0,1,.82-1.83c.91.4,8.93,4.09,9.55,8.73.2,1.49.06,2.39-.46,3a3,3,0,0,1-2.4.88,5.4,5.4,0,0,0-2.68.69c-4.24,2.58-8.87-.88-11.1-2.54-.26-.19-.56-.42-.76-.55a30.75,30.75,0,0,0-4.84,4.18A1,1,0,0,1,134.38,212.4Z" fill="#093f68"></path><path d="M151.27,211.16a1,1,0,0,1-1-.94c-.35-5.62-8.53-8.43-8.61-8.46a1,1,0,1,1,.64-1.89c.39.13,9.54,3.26,10,10.22a1,1,0,0,1-.94,1.06Z" fill="#093f68"></path><path d="M157.68,209.84a4,4,0,0,1-2-.5,1,1,0,0,1-.38-1.37,1,1,0,0,1,1.36-.38,2,2,0,0,0,2.93-2.45,6.58,6.58,0,0,0-1.18-1.56c-.27-.29-.52-.56-.71-.81a15.28,15.28,0,0,0-4.71-3.56,1,1,0,1,1,.85-1.8,16.85,16.85,0,0,1,5.44,4.13c.17.21.38.45.61.7a7.42,7.42,0,0,1,1.59,2.24,4.14,4.14,0,0,1-1.22,4.44A4.08,4.08,0,0,1,157.68,209.84Z" fill="#093f68"></path><rect x="81.73" y="220.26" width="236.53" height="10.02" rx="5.01" fill="#fff"></rect><path d="M313.26,231.29H86.74a6,6,0,0,1,0-12H313.26a6,6,0,0,1,0,12Zm-226.52-10a4,4,0,0,0,0,8H313.26a4,4,0,0,0,0-8Z" fill="#093f68"></path><path d="M108.72,129.55s-8.65-31.82-4.47-39.14,51.49-27.6,70.64-18.3,13.51,24.64,17.46,27.52,10.13,7.67,7.32,8.23-7.89,1.13-7.32,2,8.78,6.62,3.41,11.62S125.34,139.41,108.72,129.55Z" fill="#725858"></path><path d="M129.79,134.17c-8.7,0-16.82-.94-21.58-3.76a1,1,0,0,1-.45-.6c-.36-1.31-8.72-32.31-4.37-39.9,4.77-8.35,52.69-28,71.94-18.7,13.72,6.66,15.2,16.64,16.09,22.61.34,2.34.64,4.37,1.52,5,7.4,5.41,8.7,7.35,8.4,8.73a1.68,1.68,0,0,1-1.48,1.28c-.67.14-1.47.27-2.29.41-1.07.18-2.67.45-3.67.71,1.62,1.49,4.66,4.4,4.67,7.75a6,6,0,0,1-2.13,4.47c-3,2.78-21.24,7.31-39.85,9.88A204.61,204.61,0,0,1,129.79,134.17Zm-20.21-5.28c17,9.4,80.38-3.42,85.49-8.17a4,4,0,0,0,1.5-3c0-2.59-2.82-5.19-4.18-6.43a6.57,6.57,0,0,1-.88-.9,1.23,1.23,0,0,1-.11-1.16c.42-1,1.85-1.28,5.84-2l2-.35c-.39-.67-1.89-2.39-7.49-6.49-1.55-1.13-1.89-3.43-2.32-6.33-.88-5.93-2.21-14.9-15-21.1-7.95-3.86-22.6-2.78-40.18,3-15.16,5-27.31,11.72-29.15,14.92C101.91,96.53,107.15,119.84,109.58,128.89Zm90-22Z" fill="#093f68"></path><path d="M137,165.62h12.25a0,0,0,0,1,0,0v7.53a4.76,4.76,0,0,1-4.76,4.76h-2.74a4.76,4.76,0,0,1-4.76-4.76v-7.53A0,0,0,0,1,137,165.62Z" transform="translate(37.14 -25.1) rotate(11.51)" fill="#ffc9b0"></path><path d="M144.21,179.16A5.81,5.81,0,0,1,143,179l-2.68-.55a5.76,5.76,0,0,1-4.49-6.79l1.5-7.37a1,1,0,0,1,1.18-.78l12,2.44a1,1,0,0,1,.78,1.18l-1.5,7.38a5.76,5.76,0,0,1-5.62,4.61Zm-5.08-13.45-1.3,6.39a3.76,3.76,0,0,0,2.93,4.43l2.68.55h0a3.75,3.75,0,0,0,4.43-2.93l1.31-6.4Z" fill="#093f68"></path><path d="M195.73,136.53c-.44,5.67-6.34,12.81-12.9,12.3s-11.5-5.51-11.06-11.18,6.11-9.84,12.66-9.33S196.17,130.87,195.73,136.53Z" fill="#ffc9b0"></path><path d="M183.51,149.86l-.75,0c-7.09-.55-12.47-6.05-12-12.25a10.53,10.53,0,0,1,4.44-7.71,13.79,13.79,0,0,1,9.3-2.54c3.83.29,6.69,1,8.72,2.32a7,7,0,0,1,3.5,7,15.47,15.47,0,0,1-4.44,9.08A12.36,12.36,0,0,1,183.51,149.86Zm-.17-20.58a11.62,11.62,0,0,0-6.94,2.2,8.58,8.58,0,0,0-3.64,6.25c-.39,5.11,4.16,9.64,10.15,10.1,3.67.29,6.55-2.09,8-3.53a13.59,13.59,0,0,0,3.87-7.84,5.1,5.1,0,0,0-2.56-5.12c-1.72-1.07-4.36-1.75-7.82-2C184,129.29,183.68,129.28,183.34,129.28Z" fill="#093f68"></path><path d="M146.76,169.34a36,36,0,0,1-33-38.68c.55-7,1.14-12.37,6.9-17.14,3.51-2.91,7.61-5.89,8.45-10.37,1.32,2.07-.91,4.95.13,7.18.65,1.4,2.34,2,3.86,2.24a33.16,33.16,0,0,0,32.38-12.88c1.8,3.46-1.67,8,.05,11.45a5.56,5.56,0,0,0,4.6,2.81,12.77,12.77,0,0,0,5.49-1.06,43.76,43.76,0,0,0,8.13-4.27c2.07-1.32,3-2.65,3.76-.34s-.55,7.16-.74,9.59l-1.43,18.36A36,36,0,0,1,146.76,169.34Z" fill="#ffc9b0"></path><path d="M149.59,170.45q-1.44,0-2.91-.12a37,37,0,0,1-33.91-39.74c.5-6.51,1-12.65,7.25-17.84l1-.79c3.17-2.59,6.45-5.27,7.14-9a1,1,0,0,1,1.83-.36c.9,1.42.57,3,.28,4.42a4.9,4.9,0,0,0-.09,2.87c.38.81,1.38,1.35,3.15,1.68A32.31,32.31,0,0,0,164.67,99.1a1,1,0,0,1,1.7.13c1.07,2.06.59,4.28.13,6.42-.4,1.86-.78,3.62-.07,5a4.58,4.58,0,0,0,3.78,2.25,11.88,11.88,0,0,0,5.06-1,44.69,44.69,0,0,0,7.95-4.18c.38-.25.72-.49,1-.71.95-.68,1.76-1.27,2.71-1a2.66,2.66,0,0,1,1.5,1.85c.64,1.86.14,4.77-.3,7.34-.18,1-.34,2-.4,2.66l-1.42,18.35a37,37,0,0,1-36.75,34.15ZM128,107.9a31.89,31.89,0,0,1-5.78,5.6l-1,.79c-5.24,4.34-6,9.11-6.53,16.45a35,35,0,0,0,32.08,37.6h0a35,35,0,0,0,37.5-32.19l1.43-18.35c.06-.79.23-1.79.42-2.85.38-2.22.85-5,.38-6.35a2.81,2.81,0,0,0-.23-.52c-.23.12-.63.4-.93.61s-.7.51-1.12.77a45.64,45.64,0,0,1-8.31,4.37,13.83,13.83,0,0,1-5.93,1.12,6.52,6.52,0,0,1-5.42-3.37c-1-2-.54-4.23-.09-6.35a15,15,0,0,0,.47-3.3,34,34,0,0,1-32.1,11.62c-1.54-.3-3.7-.91-4.58-2.8A5,5,0,0,1,128,107.9Z" fill="#093f68"></path><path d="M143.51,124h-.13l-15.82-1a2,2,0,1,1,.26-4l15.82,1a2,2,0,0,1-.13,4Z" fill="#093f68"></path><path d="M180.36,126.74h-.17L164.4,125.4a2,2,0,1,1,.34-4l15.79,1.33a2,2,0,0,1-.17,4Z" fill="#093f68"></path><path d="M154.41,146.14a19.7,19.7,0,0,1-4.33-.56,1,1,0,0,1,.5-1.94,15.47,15.47,0,0,0,4.94.43c.31-.9-.67-4.6-2.17-8.12a1,1,0,1,1,1.84-.79c.77,1.81,3.19,7.87,2.05,10a1.73,1.73,0,0,1-1.25.9A9.11,9.11,0,0,1,154.41,146.14Z" fill="#093f68"></path><path d="M122.68,127.33c-.66,8.45,5.19,15.79,13.08,16.41s14.8-5.74,15.45-14.19Z" fill="#fff"></path><path d="M136.8,144.78c-.37,0-.75,0-1.12-.05-8.42-.65-14.7-8.49-14-17.47a1,1,0,0,1,.34-.69,1,1,0,0,1,.73-.23l28.54,2.21a1,1,0,0,1,.92,1.08C151.54,138.21,144.75,144.78,136.8,144.78Zm-13.17-16.37c-.1,7.46,5.2,13.78,12.2,14.33s13.23-4.89,14.28-12.27Z" fill="#093f68"></path><path d="M156.84,129.87c-.66,8.45,5.2,15.79,13.08,16.41s14.8-5.74,15.46-14.19Z" fill="#fff"></path><path d="M171,147.32c-.37,0-.74,0-1.12,0-8.42-.65-14.7-8.49-14-17.47a1,1,0,0,1,1.08-.92l28.54,2.21a1.07,1.07,0,0,1,.68.35,1,1,0,0,1,.24.73C185.71,140.75,178.91,147.32,171,147.32ZM157.79,131c-.1,7.46,5.2,13.78,12.21,14.33s13.22-4.89,14.27-12.27Z" fill="#093f68"></path><path d="M121.65,128.25a1,1,0,0,1-.56-.17l-6.4-4.31a1,1,0,0,1,1.12-1.66l6.4,4.31a1,1,0,0,1,.27,1.39A1,1,0,0,1,121.65,128.25Z" fill="#093f68"></path><path d="M156.84,131h-.07l-5.63-.4a1,1,0,0,1,.15-2l5.62.4a1,1,0,0,1,.92,1.07A1,1,0,0,1,156.84,131Z" fill="#093f68"></path><path d="M118.45,144.75c-6.55-.51-14.88-6.18-14.88-17.5,0-5.68,10-9.49,13.36-3.17" fill="#ffc9b0"></path><path d="M118.45,145.75h-.07a17.09,17.09,0,0,1-10.53-5,18.47,18.47,0,0,1-5.28-13.51c0-3.63,3.32-6.36,6.6-7.17,3.7-.92,7,.44,8.65,3.53a1,1,0,0,1-1.77.93c-1.77-3.36-5.34-2.78-6.4-2.52-2.46.61-5.08,2.65-5.08,5.23,0,6,3.79,15.71,14,16.5a1,1,0,0,1-.08,2Z" fill="#093f68"></path><path d="M154.5,156.72c-5.11,0-10.83-1.44-17.1-4.3l-.69-.31a1,1,0,0,1-.79-1,1,1,0,0,1,1-1c.29,0,.46.08,1.31.47,8.63,3.94,16.11,5.06,22.22,3.33a1,1,0,1,1,.55,1.92A23.68,23.68,0,0,1,154.5,156.72Z" fill="#093f68"></path><path d="M151.44,215.29h38.07a0,0,0,0,1,0,0v5a0,0,0,0,1,0,0H151.44a2.47,2.47,0,0,1-2.47-2.47v0a2.47,2.47,0,0,1,2.47-2.47Z" fill="#ffbc0e"></path><path d="M189.51,221.26H151.44a3.49,3.49,0,0,1,0-7h38.07a1,1,0,0,1,1,1v5A1,1,0,0,1,189.51,221.26Zm-38.07-5a1.49,1.49,0,0,0,0,3h37.07v-3Z" fill="#093f68"></path><rect x="189.51" y="215.29" width="81.75" height="4.97" transform="translate(460.77 435.56) rotate(180)" fill="#ffbc0e"></rect><path d="M271.26,221.26H189.51a1,1,0,0,1-1-1v-5a1,1,0,0,1,1-1h81.75a1,1,0,0,1,1,1v5A1,1,0,0,1,271.26,221.26Zm-80.75-2h79.75v-3H190.51Z" fill="#093f68"></path><polygon points="204.53 161.27 286.27 161.27 271.26 215.29 189.51 215.29 204.53 161.27" fill="#ffbc0e"></polygon><path d="M271.26,216.29H189.51a1,1,0,0,1-.8-.39,1,1,0,0,1-.16-.88l15-54a1,1,0,0,1,1-.73h81.74a1,1,0,0,1,1,1.27l-15,54A1,1,0,0,1,271.26,216.29Zm-80.43-2H270.5l14.46-52H205.29Z" fill="#093f68"></path><path d="M171.08,201a1,1,0,0,1-1-.9l-1.85-18.39a1,1,0,0,1,.9-1.1,1,1,0,0,1,1.09.9l1.85,18.39a1,1,0,0,1-.9,1.1Z" fill="#093f68"></path><path d="M283.83,73.8h-68.6a7.71,7.71,0,0,0-7.71,7.71v44.72a7.71,7.71,0,0,0,7.71,7.7h1.67v16.44l8.2-16.44h58.73a7.71,7.71,0,0,0,7.71-7.7V81.51A7.71,7.71,0,0,0,283.83,73.8Z" fill="#fff"></path><path d="M216.9,151.37a.85.85,0,0,1-.23,0,1,1,0,0,1-.77-1V134.93h-.67a8.71,8.71,0,0,1-8.71-8.7V81.51a8.72,8.72,0,0,1,8.71-8.71h68.6a8.72,8.72,0,0,1,8.71,8.71v44.72a8.71,8.71,0,0,1-8.71,8.7H225.71l-7.92,15.89A1,1,0,0,1,216.9,151.37ZM215.23,74.8a6.72,6.72,0,0,0-6.71,6.71v44.72a6.71,6.71,0,0,0,6.71,6.7h1.67a1,1,0,0,1,1,1v12.2l6.3-12.64a1,1,0,0,1,.9-.56h58.73a6.71,6.71,0,0,0,6.71-6.7V81.51a6.72,6.72,0,0,0-6.71-6.71Z" fill="#093f68"></path><path d="M235.67,84.39H219.35a1,1,0,0,1,0-2h16.32a1,1,0,0,1,0,2Z" fill="#68e1fd"></path><path d="M231.42,89.72h-7a1,1,0,0,1,0-2h7a1,1,0,0,1,0,2Z" fill="#dfeaef"></path><path d="M249.19,89.72H236.52a1,1,0,0,1,0-2h12.67a1,1,0,0,1,0,2Z" fill="#dfeaef"></path><path d="M276.46,89.72h-23a1,1,0,0,1,0-2h23a1,1,0,0,1,0,2Z" fill="#68e1fd"></path><path d="M227.93,95.34h-4.5a1,1,0,0,1,0-2h4.5a1,1,0,0,1,0,2Z" fill="#dfeaef"></path><path d="M244.09,95.34H231.42a1,1,0,0,1,0-2h12.67a1,1,0,0,1,0,2Z" fill="#68e1fd"></path><path d="M236.52,100.86H219.35a1,1,0,0,1,0-2h17.17a1,1,0,0,1,0,2Z" fill="#dfeaef"></path><path d="M247.74,100.86h-7.05a1,1,0,0,1,0-2h7.05a1,1,0,0,1,0,2Z" fill="#68e1fd"></path><path d="M227.51,106.14h-3.66a1,1,0,0,1,0-2h3.66a1,1,0,0,1,0,2Z" fill="#68e1fd"></path><path d="M248.59,106.14H230.31a1,1,0,0,1,0-2h18.28a1,1,0,0,1,0,2Z" fill="#dfeaef"></path><path d="M269.25,106.14H251.74a1,1,0,0,1,0-2h17.51a1,1,0,0,1,0,2Z" fill="#68e1fd"></path><path d="M279.71,106.14h-6.89a1,1,0,0,1,0-2h6.89a1,1,0,0,1,0,2Z" fill="#dfeaef"></path><path d="M233.71,111.77H219.35a1,1,0,0,1,0-2h14.36a1,1,0,0,1,0,2Z" fill="#68e1fd"></path><path d="M244.09,111.77h-6.34a1,1,0,0,1,0-2h6.34a1,1,0,0,1,0,2Z" fill="#68e1fd"></path><path d="M255.74,111.77h-8.63a1,1,0,0,1,0-2h8.63a1,1,0,0,1,0,2Z" fill="#dfeaef"></path><path d="M235.33,117.24h-11.9a1,1,0,0,1,0-2h11.9a1,1,0,0,1,0,2Z" fill="#68e1fd"></path><path d="M227.51,122.34h-8.16a1,1,0,0,1,0-2h8.16a1,1,0,0,1,0,2Z" fill="#dfeaef"></path><path d="M239.45,122h-8.37a1,1,0,0,1,0-2h8.37a1,1,0,0,1,0,2Z" fill="#68e1fd"></path><path d="M239.45,127.66h-15.6a1,1,0,0,1,0-2h15.6a1,1,0,0,1,0,2Z" fill="#68e1fd"></path><path d="M257.69,127.66H242.85a1,1,0,0,1,0-2h14.84a1,1,0,0,1,0,2Z" fill="#68e1fd"></path><path d="M268.74,127.66h-7.65a1,1,0,0,1,0-2h7.65a1,1,0,0,1,0,2Z" fill="#dfeaef"></path><path d="M292.31,208.9s-5.71-11.63-4.91-19.5a14.56,14.56,0,0,1,6.8,8.21c3.38,9.37,2.6,11.3,2.6,11.3Z" fill="#70cc40"></path><path d="M296.8,209.91h-4.49a1,1,0,0,1-.89-.56c-.24-.48-5.83-12-5-20a1,1,0,0,1,.5-.76,1,1,0,0,1,.91,0,15.46,15.46,0,0,1,7.33,8.78c3.26,9,2.8,11.48,2.59,12A1,1,0,0,1,296.8,209.91Zm-3.85-2h2.94c-.05-1.12-.45-3.92-2.63-10a14.53,14.53,0,0,0-4.94-6.79C288.39,197.54,291.94,205.72,293,207.91Z" fill="#093f68"></path><path d="M295,208.34s-4.29-16.59,1.87-27.7c0,0,3.55,4.06,4.4,13.88a24.89,24.89,0,0,1-2.56,13.58Z" fill="#70cc40"></path><path d="M295,209.34a1,1,0,0,1-1-.75c-.18-.69-4.31-17.11,2-28.44a1,1,0,0,1,1.63-.17c.15.18,3.77,4.42,4.64,14.46a25.65,25.65,0,0,1-2.7,14.16,1,1,0,0,1-.8.49l-3.71.25Zm2-26.71c-4.13,9.16-1.91,21.43-1.21,24.66l2.3-.15a24.68,24.68,0,0,0,2.2-12.53A29.49,29.49,0,0,0,297,182.63Z" fill="#093f68"></path><path d="M296.88,207.82s1.33-11.08,10.28-18.31c0,0,2.64,8.26-4.76,19.29Z" fill="#70cc40"></path><path d="M302.4,209.8h-.17l-5.53-1a1,1,0,0,1-.82-1.11c.06-.47,1.49-11.56,10.65-19a1,1,0,0,1,.92-.18,1,1,0,0,1,.66.65c.12.36,2.7,8.84-4.88,20.15A1,1,0,0,1,302.4,209.8ZM298,207l3.9.69c4.8-7.45,4.88-13.53,4.57-16.29A29.93,29.93,0,0,0,298,207Z" fill="#093f68"></path><polygon points="303.01 220.26 291.74 220.26 290.08 206.55 304.68 206.55 303.01 220.26" fill="#f56132"></polygon><path d="M303,221.26H291.74a1,1,0,0,1-1-.88l-1.67-13.71a1,1,0,0,1,.25-.78,1,1,0,0,1,.75-.34h14.6a1,1,0,0,1,.75.34,1,1,0,0,1,.24.78L304,220.38A1,1,0,0,1,303,221.26Zm-10.38-2h9.49l1.43-11.71H291.2Z" fill="#093f68"></path></g></svg>