<svg width="247" height="247" viewBox="0 0 247 247" fill="none" xmlns="http://www.w3.org/2000/svg">
<g clip-path="url(#clip0_395_4592)">
<path d="M210.84 36.1729C190.637 15.9705 164.053 3.39832 135.62 0.598494C107.186 -2.20134 78.6609 4.94439 54.9051 20.8182C31.1493 36.692 13.6324 60.3116 5.3391 87.6527C-2.95425 114.994 -1.51091 144.365 9.42317 170.761C20.3573 197.157 40.1056 218.946 65.3033 232.414C90.501 245.882 119.589 250.196 147.611 244.622C175.633 239.048 200.856 223.93 218.981 201.844C237.107 179.758 247.013 152.071 247.013 123.5C247.057 107.275 243.883 91.2027 237.673 76.2131C231.464 61.2235 222.344 47.6141 210.84 36.1729ZM123.513 245.465C56.1528 245.465 1.55213 190.86 1.55213 123.504C1.55213 56.148 56.1396 1.53852 123.5 1.53852C190.86 1.53852 245.461 56.1436 245.461 123.5C245.461 190.856 190.856 245.461 123.5 245.461L123.513 245.465Z" fill="#1E3A83"/>
<path d="M123.5 1.53906C56.1397 1.53906 1.54785 56.1441 1.54785 123.5C1.54785 190.856 56.1485 245.461 123.509 245.461C190.869 245.461 245.47 190.856 245.47 123.5C245.47 56.1441 190.856 1.53906 123.5 1.53906ZM208.65 208.633C188.95 228.332 163.03 240.59 135.305 243.32C107.58 246.05 79.7656 239.083 56.6019 223.605C33.4382 208.126 16.3579 185.095 8.27129 158.436C0.184682 131.776 1.59209 103.137 12.2537 77.3987C22.9153 51.6604 42.1715 30.415 66.7413 17.2826C91.311 4.15017 119.674 -0.0567804 146.998 5.37851C174.322 10.8138 198.916 25.555 216.589 47.0906C234.263 68.6261 243.922 95.6234 243.922 123.483C243.966 139.307 240.871 154.982 234.815 169.601C228.759 184.22 219.863 197.493 208.642 208.65L208.65 208.633Z" fill="#1E3A83"/>
<path d="M206.026 40.9747C186.933 21.8809 161.81 9.99793 134.939 7.35057C108.067 4.70321 81.1085 11.4552 58.6569 26.4562C36.2053 41.4571 19.6497 63.7787 11.8109 89.6177C3.97217 115.457 5.3353 143.214 15.668 168.161C26.0008 193.108 44.6638 213.7 68.4772 226.429C92.2905 239.158 119.781 243.236 146.264 237.968C172.747 232.701 196.584 218.414 213.714 197.541C230.844 176.668 240.207 150.502 240.207 123.5C240.249 108.168 237.249 92.9792 231.382 78.8138C225.515 64.6484 216.896 51.7873 206.026 40.9747ZM123.5 238.655C60.4048 238.655 9.18101 187.919 8.35 125.021H8.32802V121.944H8.35C8.5762 103.813 13.086 85.9933 21.5114 69.9381C29.9367 53.8828 42.0389 40.0472 56.8302 29.5603C58.3339 28.4904 59.8655 27.4557 61.4249 26.4561C63.7699 24.9553 66.1618 23.541 68.6007 22.2131C70.2304 21.3337 71.8866 20.4851 73.5691 19.6673C75.2517 18.8495 76.9518 18.0815 78.6695 17.3633C80.3931 16.6334 82.1358 15.9461 83.8975 15.3012C90.139 13.0156 96.5682 11.2796 103.112 10.1128C105.003 9.77573 106.908 9.4826 108.828 9.23344C113.693 8.61486 118.592 8.305 123.496 8.30571C137.004 8.29178 150.408 10.6583 163.094 15.2968C164.853 15.9446 166.596 16.632 168.322 17.3589C170.049 18.0859 171.75 18.8539 173.427 19.6629C175.942 20.8764 178.407 22.1779 180.823 23.5673C182.427 24.4907 184.015 25.4536 185.571 26.4517C187.128 27.4498 188.649 28.4874 190.166 29.5559C191.683 30.6243 193.147 31.7543 194.598 32.8712C195.324 33.4428 196.045 34.0187 196.753 34.6299C199.599 36.9749 202.325 39.4519 204.931 42.0607C206.235 43.3651 207.507 44.6988 208.747 46.0618C209.987 47.4249 211.193 48.8187 212.366 50.2433C215.303 53.8041 218.024 57.5379 220.513 61.4246C221.51 62.9811 222.471 64.564 223.398 66.1732C233.161 83.1614 238.408 102.368 238.637 121.961V125.039C237.824 187.936 186.591 238.655 123.5 238.655Z" fill="#1E3A83"/>
<path d="M190.175 29.5781C191.679 30.651 193.156 31.7561 194.607 32.8934C193.153 31.7561 191.676 30.651 190.175 29.5781Z" fill="#1E3A83"/>
<path d="M180.827 23.5898C182.432 24.5132 184.019 25.4761 185.576 26.4742C184.019 25.4761 182.432 24.5264 180.827 23.5898Z" fill="#1E3A83"/>
<path d="M185.576 26.4736C187.132 27.4703 188.664 28.505 190.17 29.5778C188.667 28.5079 187.135 27.4732 185.576 26.4736Z" fill="#1E3A83"/>
<path d="M208.752 46.0703C209.992 47.4334 211.198 48.8272 212.371 50.2518C211.195 48.8213 209.989 47.4275 208.752 46.0703Z" fill="#1E3A83"/>
<path d="M212.37 50.2432C215.306 53.8041 218.025 57.5379 220.513 61.4245C218.025 57.5379 215.306 53.8041 212.37 50.2432V50.2432Z" fill="#1E3A83"/>
<path d="M238.65 121.961C238.421 102.368 233.174 83.161 223.411 66.1729C233.174 83.161 238.421 102.368 238.65 121.961Z" fill="#1E3A83"/>
<path d="M204.935 42.0605C206.239 43.365 207.512 44.6987 208.752 46.0617C207.506 44.6987 206.234 43.365 204.935 42.0605Z" fill="#1E3A83"/>
<path d="M196.77 34.6387C199.616 36.9837 202.342 39.4606 204.948 42.0694C202.336 39.4606 199.61 36.9837 196.77 34.6387Z" fill="#1E3A83"/>
<path d="M61.4243 26.4735C63.7693 24.9727 66.1612 23.5583 68.6001 22.2305C66.1554 23.5583 63.7635 24.9727 61.4243 26.4735Z" fill="#1E3A83"/>
<path d="M73.5684 19.6897C75.2421 18.8836 76.9422 18.1156 78.6688 17.3857C76.9452 18.1127 75.245 18.8807 73.5684 19.6897Z" fill="#1E3A83"/>
<path d="M78.6694 17.3805C80.393 16.6506 82.1357 15.9632 83.8973 15.3184C82.1357 15.9662 80.393 16.6536 78.6694 17.3805Z" fill="#1E3A83"/>
<path d="M56.8301 29.5778C58.3338 28.5079 59.8654 27.4732 61.4248 26.4736C59.8654 27.4732 58.3338 28.5079 56.8301 29.5778Z" fill="#1E3A83"/>
<path d="M203.849 203.849C188.05 219.643 167.946 230.43 146.05 234.86C124.154 239.291 101.438 237.168 80.7412 228.758C60.0449 220.348 42.2869 206.024 29.6873 187.577C17.0878 169.129 10.2057 147.377 9.9017 125.039H8.36719C9.17182 187.937 60.4044 238.655 123.5 238.655C186.595 238.655 237.819 187.919 238.65 125.021H237.111C236.8 154.645 224.853 182.957 203.849 203.849Z" fill="#1E3A83"/>
<path d="M103.116 10.1304C105.007 9.79326 106.912 9.50013 108.832 9.25098C106.909 9.4972 105.004 9.79033 103.116 10.1304Z" fill="#1E3A83"/>
<path d="M163.098 15.3184C164.857 15.9662 166.6 16.6536 168.326 17.3805C166.608 16.6506 164.866 15.9632 163.098 15.3184Z" fill="#1E3A83"/>
<path d="M56.8298 29.5781C42.0385 40.065 29.9363 53.9007 21.511 69.9559C13.0856 86.0112 8.57582 103.831 8.34961 121.961C8.57582 103.831 13.0856 86.0112 21.511 69.9559C29.9363 53.9007 42.0385 40.065 56.8298 29.5781Z" fill="#1E3A83"/>
<path d="M168.326 17.3809C170.05 18.1107 171.751 18.8787 173.431 19.6848C171.751 18.8787 170.05 18.1107 168.326 17.3809Z" fill="#1E3A83"/>
<path d="M201.061 70.8248C201.355 70.9896 201.694 71.0572 202.029 71.0183C202.411 70.9597 202.773 70.8087 203.084 70.5786L205.076 69.1891C205.412 68.9639 205.691 68.6626 205.889 68.3098C206.059 67.9984 206.128 67.642 206.087 67.2897C206.033 66.9035 205.881 66.5374 205.647 66.2256L204.328 64.3086L198.902 68.0899L200.221 70.007C200.43 70.3443 200.718 70.6252 201.061 70.8248Z" fill="#1E3A83"/>
<path d="M165.79 51.2016C166.154 51.4282 166.57 51.5597 166.999 51.5841C167.383 51.5975 167.763 51.4915 168.085 51.2807C168.451 51.0386 168.753 50.7112 168.964 50.3266L174.931 40.1478C175.163 39.7789 175.303 39.3597 175.34 38.9254C175.366 38.5436 175.271 38.1633 175.067 37.8394C174.836 37.4738 174.517 37.1716 174.139 36.96C173.774 36.7345 173.359 36.6017 172.93 36.5731C172.549 36.5516 172.171 36.655 171.853 36.8676C171.489 37.1107 171.188 37.4361 170.974 37.8174L165.007 48.0006C164.779 48.3712 164.639 48.7895 164.598 49.223C164.574 49.6067 164.667 49.9888 164.866 50.3178C165.095 50.6851 165.413 50.989 165.79 51.2016V51.2016Z" fill="#1E3A83"/>
<path d="M48.1858 68.9782C48.197 68.6576 48.1128 68.3409 47.944 68.0681C47.7331 67.7379 47.4561 67.455 47.1306 67.237L44.6068 65.4783C44.2789 65.2361 43.907 65.0598 43.5119 64.9594C43.1947 64.8828 42.8615 64.9058 42.5578 65.0254C42.2499 65.1548 41.9869 65.3719 41.8015 65.6498L40.3857 67.6635L46.4315 71.9197L47.8473 69.9103C48.0495 69.6397 48.1673 69.3155 48.1858 68.9782V68.9782Z" fill="#1E3A83"/>
<path d="M45.8157 89.2919C45.5232 88.9696 45.1586 88.721 44.7517 88.5664L33.843 84.064C33.4435 83.8879 33.0083 83.8081 32.5723 83.831C32.1911 83.8576 31.8279 84.0037 31.5346 84.2487C31.2122 84.5324 30.9633 84.8899 30.8091 85.2907C30.6357 85.6829 30.5617 86.1119 30.5937 86.5395C30.6277 86.9203 30.7817 87.2805 31.0334 87.5683C31.3247 87.8921 31.6896 88.1409 32.0974 88.2938L43.0061 92.7963C43.4036 92.9739 43.8378 93.0538 44.2724 93.0293C44.6556 93.0032 45.0212 92.8587 45.3189 92.616C45.6463 92.3367 45.8987 91.98 46.0532 91.5783C46.2246 91.184 46.297 90.7539 46.2642 90.3252C46.224 89.943 46.0674 89.5823 45.8157 89.2919V89.2919Z" fill="#1E3A83"/>
<path d="M54.1869 121.961C55.0091 84.438 85.783 54.1698 123.5 54.1698C161.216 54.1698 191.99 84.438 192.812 121.961H237.111C236.696 92.1026 224.543 63.6078 203.281 42.64C182.02 21.6722 153.359 9.91699 123.497 9.91699C93.636 9.91699 64.9749 21.6722 43.7134 42.64C22.4519 63.6078 10.2991 92.1026 9.88379 121.961H54.1869ZM212.295 81.1491C213.228 80.7356 214.249 80.5588 215.267 80.6347C216.17 80.7211 217.022 81.094 217.699 81.6988C218.466 82.4063 219.057 83.2843 219.422 84.2621C219.839 85.198 220.023 86.2208 219.959 87.2432C219.882 88.1401 219.523 88.9897 218.934 89.6703C218.244 90.4323 217.386 91.0225 216.428 91.3939L215.285 91.8644L213.966 88.6986L215.052 88.2589C215.618 88.0672 216.09 87.6661 216.371 87.1377C216.477 86.8817 216.529 86.6061 216.522 86.3289C216.515 86.0516 216.45 85.7789 216.331 85.5284C216.24 85.2533 216.095 84.9991 215.905 84.7802C215.714 84.5614 215.483 84.3823 215.223 84.2533C214.968 84.1544 214.695 84.1085 214.421 84.1183C214.148 84.1281 213.879 84.1935 213.632 84.3105L212.269 84.8689C211.841 85.0287 211.474 85.3176 211.218 85.6955C210.987 86.0562 210.837 86.4627 210.778 86.8871C210.712 87.3267 210.659 87.9027 210.615 88.6458C210.615 88.7513 210.615 88.8525 210.615 88.9536C210.615 89.0548 210.615 89.1559 210.58 89.2614C210.583 89.3009 210.583 89.3406 210.58 89.3801C210.587 89.4194 210.587 89.4596 210.58 89.4988C210.542 90.324 210.436 91.1445 210.264 91.9523C210.081 92.6545 209.743 93.3067 209.274 93.8605C208.651 94.5666 207.86 95.1049 206.975 95.4258L205.132 96.1777C204.185 96.598 203.15 96.7807 202.116 96.7098C201.209 96.6298 200.352 96.2633 199.667 95.6633C198.896 94.9608 198.302 94.0852 197.935 93.1087C197.509 92.141 197.318 91.0864 197.376 90.0308C197.445 89.1184 197.794 88.2494 198.374 87.5422C199.049 86.7605 199.914 86.1655 200.885 85.8142L201.975 85.3746L203.294 88.5227L202.252 88.9624C201.971 89.0578 201.712 89.2084 201.49 89.4055C201.268 89.6026 201.088 89.8422 200.96 90.11C200.851 90.3928 200.802 90.695 200.816 90.9977C200.829 91.3003 200.905 91.5969 201.039 91.8688C201.131 92.1417 201.279 92.3926 201.473 92.6059C201.666 92.8192 201.902 92.9904 202.164 93.1087C202.726 93.3048 203.343 93.27 203.879 93.012L205.722 92.2601C206.139 92.1009 206.495 91.8129 206.737 91.4379C206.965 91.0646 207.115 90.6487 207.177 90.2155C207.243 89.7758 207.3 89.1603 207.344 88.4084V88.2809C207.348 88.2473 207.348 88.2133 207.344 88.1798V87.9555C207.39 87.0847 207.512 86.2196 207.709 85.3701C207.905 84.6007 208.271 83.8853 208.782 83.2772C209.425 82.5405 210.243 81.9766 211.16 81.6372L212.295 81.1491ZM205.066 59.7011L205.946 60.9894L208.184 64.2035C208.832 65.0666 209.282 66.0619 209.503 67.1186C209.673 68.0092 209.564 68.9306 209.191 69.7568C208.764 70.6356 208.107 71.383 207.291 71.9201L205.093 73.4458C204.287 74.042 203.337 74.4137 202.34 74.523C201.421 74.6021 200.499 74.3948 199.702 73.9294L199.654 73.8987L193.182 82.5298L191.049 79.4519L197.31 71.5727L196.211 69.9986L188.297 75.5123L186.349 72.7203L205.066 59.7011ZM192.276 46.3081L180.343 59.2218C179.943 59.5975 179.702 60.112 179.67 60.6596C179.679 60.9138 179.743 61.1631 179.857 61.3906C179.97 61.6181 180.132 61.8187 180.329 61.9787C180.507 62.1653 180.723 62.3123 180.961 62.41C181.2 62.5077 181.457 62.554 181.714 62.5459C182.259 62.4745 182.756 62.1977 183.104 61.772L195.041 48.8583L197.574 51.1975L185.702 64.0276C185.017 64.8023 184.158 65.4048 183.196 65.7864C182.354 66.1089 181.432 66.1627 180.558 65.9402C179.607 65.6431 178.733 65.1378 178.002 64.4609C177.27 63.7839 176.698 62.9525 176.328 62.027C176.033 61.1751 176.016 60.2511 176.28 59.3889C176.595 58.3984 177.137 57.4951 177.863 56.7508L189.734 43.9206L192.276 46.3081ZM161.937 46.4444L168.093 35.949C168.597 35.0374 169.321 34.2664 170.199 33.7066C170.992 33.2271 171.913 33.003 172.837 33.0647C173.899 33.1884 174.923 33.5313 175.845 34.0717C176.767 34.6121 177.566 35.3383 178.193 36.2041C178.706 36.9859 178.964 37.9076 178.931 38.8422C178.875 39.8826 178.556 40.8916 178.004 41.7749L171.848 52.2703C171.348 53.1819 170.624 53.9518 169.746 54.5083C168.951 54.9829 168.032 55.2067 167.108 55.1503C166.045 55.0306 165.02 54.6893 164.097 54.1485C163.175 53.6078 162.376 52.8796 161.753 52.0109C161.243 51.2273 160.986 50.3069 161.014 49.3728C161.059 48.3295 161.371 47.3152 161.92 46.4269L161.937 46.4444ZM149.995 23.4179L153.28 24.4687L150.246 33.9309L153.86 35.0917L156.89 25.6295L160.174 26.6804L153.223 48.3791L149.938 47.3282L152.871 38.1783L149.257 37.0219L146.328 46.1718L143.044 45.121L149.995 23.4179ZM120.897 20.1774L124.484 20.1202L120.123 36.1645L123.491 36.1073L123.39 29.9517L126.762 29.8945L126.859 36.0502L128.349 36.0238L128.402 39.3303L126.912 39.3566L126.969 42.8741L123.601 42.9269L123.544 39.4094L116.381 39.5281L116.306 36.3975L120.897 20.1774ZM97.3029 25.9813C97.45 25.0676 97.8952 24.2281 98.5692 23.5938C99.3363 22.9176 100.272 22.4618 101.278 22.2747C102.256 22.0252 103.28 22.0147 104.263 22.2439C105.099 22.4715 105.838 22.9674 106.365 23.6553C106.982 24.4961 107.402 25.4656 107.592 26.4913L107.622 26.6452C107.817 27.646 107.853 28.6715 107.728 29.6835C107.573 31.0324 107.301 32.3653 106.914 33.6671L104.615 41.709L110.603 40.3899L111.311 43.6348L101.177 45.8332L100.526 42.8478L103.445 33.4648C103.825 32.3207 104.095 31.1428 104.25 29.9473C104.377 29.0706 104.356 28.1789 104.188 27.3091L104.158 27.1552C104.079 26.6073 103.824 26.0997 103.432 25.7086C103.251 25.568 103.038 25.4728 102.813 25.4307C102.587 25.3887 102.355 25.4011 102.135 25.4669C101.858 25.5068 101.597 25.6188 101.377 25.7917C101.157 25.9645 100.986 26.1922 100.882 26.4518C100.672 27.1695 100.672 27.9324 100.882 28.6502L100.974 29.0899L97.5447 29.8417L97.4524 29.4021C97.1753 28.2774 97.1186 27.1099 97.2853 25.9637L97.3029 25.9813ZM67.8437 36.3536L80.1594 46.5104L72.3901 33.6011L75.1293 31.9523L86.8734 51.4657L84.4156 52.9474L72.456 43.3446L79.8736 55.6559L77.1211 57.3092L65.3814 37.8001L67.8437 36.3536ZM52.1907 48.6649L56.9482 44.2152L59.2038 46.6335L54.4331 51.0832L58.8828 55.8494L63.0774 51.9361L65.3199 54.3456L61.1252 58.2545L65.465 62.9108L70.2356 58.4612L72.4868 60.8795L67.7206 65.3291L66.4015 66.547L65.2011 67.6726L49.6581 51.004L52.1907 48.6649ZM37.7337 65.76L39.1715 63.7242C39.7082 62.9124 40.432 62.2414 41.282 61.7676C42.0414 61.3672 42.9067 61.2135 43.7575 61.3279C44.714 61.4741 45.6199 61.8531 46.3956 62.4315L49.4295 64.5684C50.2234 65.0928 50.8698 65.8119 51.307 66.6569C51.6825 67.4195 51.816 68.2787 51.6895 69.1192C51.5305 70.0752 51.1462 70.9795 50.5683 71.7574L49.1349 73.7931L56.3634 78.8803L54.354 81.6855L35.72 68.5696L37.7337 65.76ZM49.2096 92.8669C48.8319 93.8763 48.2183 94.7808 47.4201 95.505C46.7171 96.1163 45.8443 96.4982 44.9183 96.5998C43.8816 96.6886 42.8393 96.5131 41.8888 96.0898L30.6459 91.451C29.6743 91.0832 28.8099 90.4786 28.1309 89.6923C27.5426 88.9688 27.1924 88.0812 27.1284 87.1509C27.1092 86.0864 27.3098 85.0294 27.7176 84.0459C28.1253 83.0624 28.7316 82.1736 29.4983 81.4349C30.1988 80.8198 31.073 80.4372 32.0002 80.3401C33.0387 80.2519 34.0826 80.429 35.034 80.8545L46.2769 85.4933C47.2471 85.8591 48.1092 86.4641 48.7831 87.252C49.3685 87.9772 49.7182 88.8639 49.7856 89.7934C49.8301 90.8515 49.6221 91.905 49.1788 92.8669H49.2096Z" fill="#1E3A83"/>
<path d="M8.34961 121.961H9.90171C10.3171 92.1026 22.4698 63.6078 43.7313 42.64C64.9928 21.6722 93.6539 9.91695 123.515 9.91695C153.377 9.91695 182.038 21.6722 203.299 42.64C224.561 63.6078 236.713 92.1026 237.129 121.961H238.668C238.439 102.368 233.192 83.1614 223.428 66.1732C222.505 64.564 221.543 62.9811 220.544 61.4246C218.051 57.5377 215.328 53.8039 212.388 50.2433C211.215 48.8187 210.009 47.4249 208.769 46.0618C207.529 44.6988 206.257 43.3651 204.952 42.0607C202.338 39.4577 199.61 36.9837 196.77 34.6387C196.062 34.0495 195.341 33.4735 194.615 32.88C193.15 31.7426 191.672 30.6375 190.183 29.5647C188.694 28.4918 187.163 27.4571 185.588 26.4605C184.032 25.4624 182.445 24.4995 180.84 23.5761C178.424 22.1867 175.959 20.8852 173.444 19.6717C171.765 18.8656 170.063 18.0976 168.339 17.3677C166.616 16.6378 164.873 15.9505 163.112 15.3056C150.425 10.6671 137.021 8.30059 123.513 8.31451C118.604 8.31762 113.701 8.63191 108.832 9.25546C106.909 9.49875 105.004 9.79188 103.116 10.1348C96.5722 11.3016 90.143 13.0376 83.9015 15.3232C82.1427 15.971 80.4001 16.6584 78.6736 17.3853C76.947 18.1123 75.2454 18.8803 73.5687 19.6893C71.8891 20.4983 70.233 21.3469 68.6003 22.2351C66.1556 23.5629 63.7637 24.9773 61.4245 26.4781C59.8651 27.4747 58.3335 28.5094 56.8298 29.5823C42.0391 40.0688 29.9373 53.9037 21.512 69.9581C13.0866 86.0125 8.57651 103.832 8.34961 121.961V121.961Z" fill="#1E3A83"/>
<path d="M57.4633 178.457L63.7861 185.809L67.6861 182.454L57.714 170.851L39.3789 186.609L43.0327 190.861L49.6852 185.141L55.1022 191.446L58.8308 188.24L53.4138 181.94L57.4633 178.457Z" fill="#DE2136"/>
<path d="M74.1173 187.382L60.0142 207.016L64.5673 210.286L78.6705 190.652L74.1173 187.382Z" fill="#DE2136"/>
<path d="M83.251 200.032L90.0222 202.635L83.1938 220.398L88.4261 222.408L95.2545 204.649L102.026 207.252L103.872 202.45L85.0933 195.23L83.251 200.032Z" fill="#DE2136"/>
<path d="M125.479 216.825L111.488 203.423L110.723 203.533L110.01 228.023L115.612 228.186L115.981 215.558L130.17 229.07L130.733 228.986L131.445 204.465L125.843 204.302L125.479 216.825Z" fill="#DE2136"/>
<path d="M151.144 219.405L149.759 214.898L158.205 212.299L156.772 207.634L148.321 210.233L147.05 206.104L156.319 203.251L154.806 198.335L140.178 202.837L147.292 225.939L161.916 221.441L160.412 216.551L151.144 219.405Z" fill="#DE2136"/>
<path d="M175.744 197.552C172.508 198.168 171.198 198.432 170.318 197.113C169.769 196.29 169.923 195.037 171.637 193.903C173.062 192.949 175.494 192.553 177.178 192.584L175.568 187.633C173.19 187.751 170.888 188.511 168.907 189.831C164.215 192.966 163.741 197.412 165.702 200.344C167.311 202.754 169.923 203.985 174.412 203.048C178.308 202.231 179.301 202.609 180 203.633C180.699 204.658 180.541 205.832 178.897 206.909C176.827 208.2 174.413 208.831 171.976 208.72L173.511 213.803C176.397 213.715 179.209 212.862 181.658 211.332C186.495 208.109 186.776 203.506 184.63 200.3C182.898 197.689 180.563 196.629 175.744 197.552Z" fill="#DE2136"/>
<path d="M194.303 180.11C191.362 181.601 190.174 182.19 188.965 181.17C188.209 180.532 188.011 179.284 189.33 177.723C190.434 176.404 192.663 175.361 194.29 174.917L191.375 170.6C189.73 171.066 187.281 172.539 185.575 174.557C181.939 178.861 182.704 183.267 185.399 185.549C187.598 187.422 190.465 187.884 194.519 185.743C198.036 183.878 199.096 183.953 200.05 184.762C201.004 185.571 201.175 186.705 199.896 188.214C198.261 190.026 196.115 191.3 193.74 191.867L196.62 196.326C199.369 195.445 201.834 193.85 203.765 191.705C207.511 187.268 206.526 182.766 203.576 180.273C201.215 178.268 198.678 177.894 194.303 180.11Z" fill="#DE2136"/>
<path d="M208.641 38.3494C188.941 18.6505 163.021 6.39177 135.296 3.66178C107.57 0.931777 79.7565 7.8995 56.5928 23.3777C33.4291 38.8559 16.3488 61.8869 8.26218 88.5466C0.175579 115.206 1.58299 143.845 12.2446 169.584C22.9062 195.322 42.1624 216.567 66.7322 229.7C91.3019 242.832 119.665 247.039 146.989 241.604C174.313 236.168 198.907 221.427 216.58 199.892C234.254 178.356 243.913 151.359 243.913 123.5C243.956 107.679 240.861 92.0076 234.806 77.3916C228.752 62.7755 219.859 49.5054 208.641 38.3494V38.3494ZM206.003 206.025C186.911 225.119 161.788 237.002 134.916 239.649C108.044 242.296 81.0861 235.544 58.6345 220.544C36.1829 205.543 19.6273 183.221 11.7885 157.382C3.94975 131.543 5.31287 103.785 15.6456 78.8386C25.9784 53.892 44.6414 33.2998 68.4548 20.5709C92.2681 7.84195 119.758 3.76381 146.241 9.03133C172.725 14.2989 196.562 28.5861 213.692 49.4588C230.822 70.3314 240.185 96.4978 240.185 123.5C240.23 138.831 237.234 154.018 231.37 168.184C225.507 182.349 216.892 195.211 206.025 206.025H206.003Z" fill="white"/>
<path d="M195.742 125.039H192.813C191.991 162.562 161.213 192.83 123.501 192.83C85.7884 192.83 55.0101 162.562 54.1879 125.039H9.90234C10.3177 154.898 22.4704 183.392 43.732 204.36C64.9935 225.328 93.6546 237.083 123.516 237.083C153.377 237.083 182.038 225.328 203.3 204.36C224.561 183.392 236.714 154.898 237.129 125.039H195.742ZM197.5 137.838L199.171 136.897H201.497V150.321H199.211V139.509L197.5 140.314V137.838ZM44.3828 148.03H46.6692V150.321H44.3828V148.03ZM26.8963 139.131H23.2205V142.539H26.4347V144.764H23.2205V148.079H26.8963V150.312H20.8946V136.889H26.8612L26.8963 139.131ZM35.5319 147.142C35.5496 147.762 35.4137 148.377 35.1361 148.932C34.8838 149.419 34.4857 149.816 33.9973 150.066C33.4413 150.34 32.8272 150.474 32.2078 150.458C31.5814 150.474 30.9602 150.339 30.3963 150.066C29.9044 149.814 29.5011 149.419 29.2399 148.932C28.9574 148.379 28.8183 147.763 28.8354 147.142V146.426H31.1174V147.147C31.1095 147.292 31.1307 147.438 31.1798 147.576C31.2289 147.713 31.3048 147.839 31.4032 147.947C31.5092 148.047 31.6344 148.124 31.7712 148.174C31.908 148.224 32.0536 148.245 32.199 148.237C32.3401 148.245 32.4813 148.224 32.6137 148.175C32.7462 148.126 32.867 148.05 32.9685 147.951C33.1586 147.735 33.2565 147.452 33.2411 147.164V145.995C33.2456 145.764 33.1728 145.538 33.0344 145.353C32.8864 145.164 32.7045 145.004 32.498 144.882C32.2782 144.75 31.9836 144.592 31.6186 144.407L31.5527 144.368L31.4823 144.333L31.3636 144.275C30.9139 144.055 30.4869 143.792 30.0885 143.488C29.7211 143.193 29.4213 142.823 29.2091 142.402C28.9615 141.884 28.8424 141.314 28.8618 140.74V140.05C28.843 139.44 28.9775 138.836 29.2531 138.291C29.5055 137.807 29.9039 137.415 30.3919 137.17C30.9509 136.896 31.5679 136.762 32.1902 136.779C32.7996 136.764 33.4035 136.898 33.949 137.17C34.4359 137.417 34.8316 137.813 35.079 138.3C35.3492 138.856 35.4819 139.468 35.4659 140.085V140.842L33.1839 140.868V140.103C33.2007 139.81 33.1065 139.521 32.9201 139.294C32.8262 139.195 32.7119 139.118 32.585 139.068C32.4582 139.017 32.3219 138.996 32.1858 139.004C32.0465 138.995 31.9068 139.013 31.7748 139.059C31.6427 139.104 31.5209 139.175 31.4164 139.267C31.3234 139.363 31.2511 139.477 31.2042 139.602C31.1573 139.727 31.1367 139.86 31.1437 139.993V140.872C31.1383 141.106 31.2076 141.336 31.3416 141.527C31.4766 141.714 31.6469 141.872 31.8428 141.994C32.0407 142.117 32.3221 142.271 32.6783 142.433C32.7442 142.464 32.8146 142.495 32.8849 142.534L33.1004 142.644H33.1355H33.1663C33.5959 142.866 34.0089 143.119 34.4018 143.401C34.7418 143.658 35.0172 143.99 35.2065 144.372C35.4458 144.872 35.5604 145.423 35.5406 145.977L35.5319 147.142ZM37.1939 136.897H43.9167V139.096H41.7183V150.321H39.4275V139.096H37.229L37.1939 136.897ZM55.12 191.445L49.703 185.14L43.0505 190.856L39.3967 186.604L57.7318 170.846L67.7039 182.454L63.8039 185.804L57.4811 178.453L53.4316 181.935L58.8486 188.236L55.12 191.445ZM64.5733 210.33L60.0182 207.059L74.097 187.427L78.6522 190.698L64.5733 210.33ZM102.044 207.252L95.2725 204.649L88.4397 222.408L83.2074 220.399L90.0358 202.64L83.2645 200.033L85.1112 195.231L103.89 202.451L102.044 207.252ZM130.733 228.982L130.171 229.061L115.982 215.554L115.612 228.177L110.011 228.014L110.723 203.524L111.484 203.414L125.479 216.82L125.844 204.293L131.446 204.456L130.733 228.982ZM147.292 225.93L140.178 202.829L154.802 198.327L156.319 203.242L147.05 206.118L148.321 210.247L156.767 207.648L158.205 212.313L149.759 214.912L151.144 219.418L160.412 216.569L161.916 221.454L147.292 225.93ZM181.645 211.289C179.196 212.819 176.384 213.671 173.498 213.76L171.963 208.677C174.4 208.788 176.814 208.156 178.884 206.865C180.528 205.766 180.643 204.579 179.987 203.59C179.332 202.6 178.295 202.187 174.399 203.005C169.91 203.941 167.298 202.71 165.689 200.301C163.728 197.368 164.203 192.923 168.894 189.788C170.875 188.467 173.177 187.707 175.555 187.589L177.165 192.54C175.481 192.518 173.049 192.914 171.625 193.859C169.923 194.994 169.769 196.247 170.305 197.069C171.185 198.388 172.504 198.146 175.731 197.509C180.568 196.585 182.885 197.645 184.604 200.222C186.763 203.48 186.468 208.074 181.645 211.297V211.289ZM203.77 191.687C201.839 193.833 199.374 195.427 196.625 196.308L193.745 191.85C196.12 191.283 198.266 190.009 199.901 188.196C201.18 186.688 200.965 185.51 200.055 184.745C199.145 183.979 198.041 183.865 194.524 185.725C190.47 187.866 187.62 187.405 185.404 185.532C182.709 183.254 181.944 178.848 185.58 174.539C187.286 172.526 189.735 171.053 191.38 170.582L194.295 174.9C192.668 175.34 190.439 176.395 189.335 177.705C188.016 179.266 188.214 180.515 188.97 181.152C190.179 182.172 191.367 181.592 194.308 180.093C198.705 177.894 201.22 178.25 203.586 180.251C206.532 182.757 207.516 187.26 203.77 191.696V191.687ZM210.005 141.681C210.013 142.19 209.957 142.699 209.838 143.194C209.694 143.738 209.52 144.274 209.315 144.799C209.315 144.86 209.275 144.922 209.253 144.979C209.231 145.036 209.209 145.098 209.183 145.159L207.292 150.312H204.856L206.852 144.803C206.709 144.843 206.561 144.864 206.413 144.865C205.918 144.88 205.428 144.76 204.997 144.517C204.606 144.28 204.298 143.926 204.118 143.506C203.9 143.007 203.794 142.467 203.805 141.923V139.949C203.79 139.356 203.916 138.768 204.175 138.234C204.409 137.77 204.783 137.39 205.243 137.148C205.761 136.884 206.337 136.754 206.918 136.77C207.499 136.754 208.074 136.881 208.594 137.139C209.051 137.38 209.422 137.758 209.653 138.221C209.911 138.753 210.036 139.34 210.018 139.931L210.005 141.681ZM218.254 141.681C218.259 142.19 218.203 142.698 218.087 143.194C217.943 143.738 217.768 144.274 217.563 144.799C217.563 144.86 217.524 144.922 217.502 144.979C217.48 145.036 217.458 145.098 217.431 145.159L215.541 150.312H213.1L215.101 144.803C214.958 144.843 214.81 144.864 214.661 144.865C214.167 144.88 213.677 144.76 213.246 144.517C212.854 144.28 212.547 143.926 212.366 143.506C212.148 143.003 212.043 142.458 212.058 141.91V139.936C212.043 139.343 212.169 138.755 212.428 138.221C212.662 137.758 213.034 137.378 213.492 137.135C214.01 136.871 214.586 136.741 215.167 136.757C215.749 136.74 216.325 136.867 216.847 137.126C217.304 137.367 217.675 137.745 217.906 138.208C218.162 138.741 218.287 139.327 218.271 139.918L218.254 141.681ZM226.669 148.079V150.334H220.47V148.237L223.174 143.528C223.525 142.927 223.82 142.294 224.053 141.637C224.233 141.165 224.331 140.665 224.343 140.16V139.984C224.363 139.729 224.298 139.474 224.159 139.259C224.085 139.177 223.994 139.113 223.891 139.073C223.789 139.033 223.679 139.016 223.569 139.026C223.444 139.015 223.317 139.037 223.202 139.089C223.087 139.14 222.986 139.22 222.91 139.32C222.752 139.601 222.68 139.922 222.703 140.244V140.723H220.382V140.244C220.36 139.58 220.476 138.92 220.725 138.305C220.937 137.817 221.305 137.413 221.771 137.157C222.315 136.88 222.92 136.746 223.53 136.77C224.136 136.749 224.739 136.871 225.289 137.126C225.746 137.358 226.112 137.735 226.331 138.199C226.579 138.764 226.698 139.376 226.678 139.993V140.169C226.661 140.748 226.552 141.321 226.353 141.866C226.087 142.624 225.76 143.359 225.377 144.064L223.244 148.079H226.669Z" fill="white"/>
<path d="M206.905 138.972C206.788 138.965 206.671 138.981 206.561 139.02C206.451 139.058 206.35 139.118 206.263 139.197C206.18 139.287 206.117 139.393 206.078 139.509C206.038 139.625 206.023 139.747 206.034 139.869V141.769C206.02 142.014 206.104 142.254 206.267 142.437C206.443 142.591 206.669 142.675 206.903 142.675C207.136 142.675 207.362 142.591 207.538 142.437C207.697 142.249 207.777 142.006 207.762 141.76V139.869C207.772 139.748 207.757 139.626 207.72 139.511C207.682 139.395 207.622 139.289 207.542 139.197C207.456 139.119 207.355 139.059 207.246 139.021C207.137 138.982 207.021 138.966 206.905 138.972V138.972Z" fill="white"/>
<path d="M215.149 138.973C215.033 138.966 214.917 138.983 214.808 139.021C214.698 139.06 214.598 139.119 214.511 139.197C214.429 139.287 214.365 139.393 214.326 139.509C214.287 139.625 214.272 139.748 214.283 139.87V141.769C214.269 142.014 214.353 142.254 214.516 142.438C214.599 142.519 214.699 142.582 214.808 142.622C214.916 142.663 215.033 142.681 215.149 142.675C215.265 142.682 215.382 142.664 215.491 142.624C215.6 142.583 215.699 142.519 215.782 142.438C215.944 142.251 216.027 142.007 216.011 141.76V139.87C216.022 139.748 216.008 139.626 215.969 139.51C215.931 139.394 215.869 139.287 215.786 139.197C215.701 139.118 215.6 139.058 215.491 139.019C215.381 138.98 215.265 138.965 215.149 138.973Z" fill="white"/>
<path d="M28.1004 89.657C28.7794 90.4434 29.6438 91.0479 30.6155 91.4157L41.8583 96.0545C42.8088 96.4778 43.8511 96.6532 44.8878 96.5645C45.8138 96.4629 46.6867 96.0809 47.3896 95.4697C48.1878 94.7455 48.8014 93.841 49.1791 92.8315C49.6187 91.8537 49.8163 90.7845 49.7551 89.7141C49.6878 88.7846 49.338 87.8979 48.7526 87.1727C48.0787 86.3848 47.2166 85.7798 46.2464 85.414L35.0036 80.806C34.0521 80.3805 33.0082 80.2034 31.9697 80.2916C31.0425 80.3887 30.1684 80.7712 29.4679 81.3864C28.7011 82.125 28.0949 83.0139 27.6871 83.9974C27.2793 84.9809 27.0788 86.0379 27.0979 87.1024C27.1593 88.0372 27.5096 88.9299 28.1004 89.657V89.657ZM30.8089 85.2908C30.9631 84.89 31.212 84.5325 31.5344 84.2488C31.8277 84.0038 32.1909 83.8577 32.5721 83.8311C33.008 83.8082 33.4433 83.888 33.8428 84.0641L44.7515 88.5666C45.1584 88.7211 45.523 88.9697 45.8155 89.2921C46.0641 89.5836 46.2175 89.9441 46.2552 90.3253C46.288 90.754 46.2156 91.1842 46.0442 91.5784C45.8897 91.9801 45.6373 92.3368 45.3099 92.6161C45.0122 92.8588 44.6466 93.0033 44.2634 93.0294C43.8288 93.054 43.3945 92.9741 42.9971 92.7964L32.0972 88.2808C31.6894 88.1278 31.3245 87.879 31.0332 87.5553C30.7814 87.2674 30.6275 86.9072 30.5935 86.5264C30.5637 86.1032 30.6376 85.679 30.8089 85.2908V85.2908Z" fill="white"/>
<path d="M56.3421 78.8763L49.1136 73.7715L50.547 71.7358C51.1249 70.9579 51.5093 70.0535 51.6682 69.0976C51.7948 68.2571 51.6613 67.3979 51.2857 66.6354C50.8485 65.7903 50.2022 65.0713 49.4082 64.5468L46.3744 62.41C45.5987 61.8315 44.6928 61.4525 43.7362 61.3063C42.8855 61.192 42.0202 61.3457 41.2608 61.746C40.4108 62.2198 39.687 62.8908 39.1503 63.7026L37.7125 65.7384L35.7295 68.5568L54.3547 81.6859L56.3421 78.8763ZM41.8016 65.6329C41.987 65.355 42.25 65.1379 42.5579 65.0085C42.8616 64.8889 43.1947 64.8659 43.512 64.9426C43.9071 65.043 44.2789 65.2192 44.6068 65.4614L47.1307 67.2201C47.4562 67.4381 47.7331 67.721 47.9441 68.0512C48.1129 68.324 48.1971 68.6407 48.1859 68.9613C48.1639 69.2925 48.0463 69.6102 47.8473 69.8759L46.4315 71.8852L40.3858 67.6291L41.8016 65.6329Z" fill="white"/>
<path d="M66.3884 66.5555L66.3972 66.5423L67.7031 65.3243L72.4737 60.8791L70.2181 58.4608L65.4475 62.9061L61.1077 58.2541L65.3024 54.3409L63.0599 51.9358L58.8653 55.849L54.4157 51.0784L59.1863 46.6331L56.9307 44.2148L52.16 48.6601L49.6406 51.0124L65.1836 67.6767L66.3884 66.5555Z" fill="white"/>
<path d="M79.874 55.6553L72.4564 43.322L84.416 52.9205L86.8739 51.4431L75.1342 31.9297L72.3949 33.5785L80.1598 46.4878L67.8133 36.3354L65.3818 37.7995L77.1215 57.3086L79.874 55.6553Z" fill="white"/>
<path d="M97.5318 29.8815L100.961 29.1296L100.869 28.6899C100.659 27.9721 100.659 27.2092 100.869 26.4914C100.973 26.2318 101.144 26.0042 101.364 25.8314C101.584 25.6585 101.845 25.5465 102.122 25.5065C102.342 25.4407 102.574 25.4283 102.8 25.4704C103.026 25.5125 103.238 25.6078 103.419 25.7484C103.811 26.1394 104.066 26.6469 104.145 27.1949L104.175 27.3488C104.343 28.2186 104.364 29.1104 104.237 29.987C104.082 31.1825 103.812 32.3604 103.432 33.5045L100.513 42.8875L101.164 45.873L111.298 43.6745L110.591 40.4296L104.602 41.7487L106.902 33.7067C107.288 32.405 107.56 31.0721 107.715 29.7231C107.84 28.7111 107.805 27.6858 107.609 26.6849L107.579 26.531C107.389 25.5053 106.969 24.5358 106.352 23.695C105.825 23.0071 105.086 22.5112 104.25 22.2836C103.267 22.0544 102.243 22.0649 101.265 22.3144C100.259 22.5015 99.3234 22.9573 98.5562 23.6334C97.8823 24.2678 97.4371 25.1072 97.2899 26.021C97.1126 27.1821 97.1648 28.3667 97.4438 29.5077L97.5318 29.8815Z" fill="white"/>
<path d="M123.526 39.3961L123.583 42.9048L126.956 42.8521L126.899 39.3434L128.385 39.317L128.332 36.0105L126.846 36.0369L126.745 29.8768L123.377 29.9296L123.474 36.0896L120.106 36.1424L124.467 20.1025L120.879 20.1597L116.315 36.393L116.368 39.5104L123.526 39.3961Z" fill="white"/>
<path d="M149.244 37.0044L152.854 38.1608L149.921 47.3107L153.206 48.3616L160.157 26.6629L156.877 25.6076L153.843 35.0698L150.233 33.9134L153.263 24.4512L149.978 23.4004L143.027 45.0991L146.311 46.1543L149.244 37.0044Z" fill="white"/>
<path d="M164.075 54.1215C164.985 54.6887 166.017 55.0322 167.086 55.1239C168.01 55.1803 168.93 54.9566 169.725 54.482C170.603 53.9255 171.326 53.1556 171.826 52.244L177.982 41.7486C178.534 40.8653 178.854 39.8562 178.91 38.8159C178.942 37.8813 178.684 36.9595 178.171 36.1777C177.545 35.312 176.745 34.5859 175.823 34.0454C174.901 33.505 173.877 33.162 172.816 33.0384C171.891 32.9766 170.97 33.2007 170.177 33.6803C169.299 34.2401 168.575 35.0111 168.071 35.9227L161.916 46.4181C161.363 47.2979 161.043 48.3043 160.988 49.342C160.96 50.2761 161.217 51.1966 161.727 51.9802C162.329 52.8695 163.134 53.6034 164.075 54.1215V54.1215ZM165.002 48.0142L170.969 37.831C171.183 37.4497 171.485 37.1243 171.848 36.8812C172.166 36.6686 172.544 36.5652 172.926 36.5867C173.354 36.6153 173.769 36.7481 174.135 36.9736C174.512 37.1852 174.831 37.4874 175.062 37.853C175.266 38.1769 175.362 38.5572 175.335 38.939C175.299 39.3733 175.158 39.7925 174.926 40.1614L168.96 50.3401C168.748 50.7247 168.446 51.0522 168.08 51.2943C167.758 51.5051 167.379 51.611 166.994 51.5976C166.567 51.5621 166.153 51.4311 165.783 51.2142C165.413 50.9973 165.097 50.7001 164.857 50.3445C164.658 50.0156 164.564 49.6335 164.589 49.2497C164.629 48.8113 164.77 48.3883 165.002 48.0142V48.0142Z" fill="white"/>
<path d="M176.302 59.4062C176.037 60.2684 176.054 61.1924 176.35 62.0444C176.72 62.9699 177.292 63.8013 178.024 64.4782C178.755 65.1551 179.629 65.6605 180.58 65.9576C181.454 66.1801 182.376 66.1263 183.218 65.8037C184.18 65.4222 185.038 64.8197 185.724 64.045L197.596 51.2148L195.063 48.8757L183.126 61.7894C182.778 62.2151 182.281 62.4919 181.736 62.5632C181.479 62.5714 181.222 62.5251 180.983 62.4274C180.745 62.3296 180.529 62.1826 180.351 61.996C180.154 61.836 179.992 61.6355 179.879 61.408C179.765 61.1804 179.701 60.9312 179.692 60.6769C179.724 60.1293 179.965 59.6148 180.365 59.2391L192.298 46.3255L189.77 43.9863L177.898 56.8164C177.174 57.5455 176.628 58.4318 176.302 59.4062V59.4062Z" fill="white"/>
<path d="M188.306 75.53L196.221 70.0163L197.32 71.5904L191.054 79.4608L193.187 82.5386L199.659 73.9076L199.707 73.9383C200.504 74.4037 201.426 74.611 202.346 74.5319C203.342 74.4226 204.292 74.0509 205.098 73.4547L207.296 71.929C208.113 71.3919 208.769 70.6445 209.196 69.7657C209.569 68.9395 209.678 68.0181 209.508 67.1275C209.288 66.0708 208.837 65.0755 208.189 64.2124L205.951 60.9982L205.072 59.71L186.363 72.7512L188.306 75.53ZM204.324 64.3619L205.643 66.2789C205.877 66.5907 206.029 66.9568 206.083 67.343C206.124 67.6953 206.055 68.0516 205.885 68.363C205.687 68.7159 205.408 69.0171 205.072 69.2424L203.08 70.6318C202.769 70.862 202.407 71.0129 202.025 71.0715C201.69 71.1105 201.351 71.0428 201.057 70.8781C200.724 70.6879 200.44 70.4212 200.231 70.0998L198.912 68.1828L204.324 64.3619Z" fill="white"/>
<path d="M208.769 83.2554C208.258 83.8634 207.892 84.5788 207.696 85.3483C207.499 86.1978 207.377 87.0629 207.331 87.9337V88.1579C207.336 88.1915 207.336 88.2255 207.331 88.259V88.3602C207.287 89.1121 207.23 89.7144 207.164 90.1673C207.102 90.6005 206.953 91.0164 206.724 91.3896C206.482 91.7647 206.126 92.0527 205.709 92.2118L203.866 92.9637C203.33 93.2218 202.713 93.2566 202.152 93.0605C201.889 92.9422 201.653 92.771 201.46 92.5577C201.266 92.3444 201.118 92.0935 201.026 91.8206C200.892 91.5487 200.816 91.2521 200.803 90.9495C200.789 90.6468 200.838 90.3446 200.947 90.0618C201.075 89.794 201.255 89.5544 201.477 89.3573C201.699 89.1602 201.958 89.0095 202.24 88.9142L203.282 88.4745L201.963 85.3263L200.872 85.766C199.901 86.1173 199.036 86.7123 198.361 87.494C197.781 88.2012 197.432 89.0702 197.363 89.9826C197.305 91.0382 197.496 92.0928 197.922 93.0605C198.289 94.037 198.883 94.9126 199.654 95.6151C200.339 96.2151 201.196 96.5816 202.103 96.6616C203.137 96.7325 204.172 96.5498 205.119 96.1295L206.962 95.3776C207.847 95.0567 208.638 94.5184 209.261 93.8123C209.73 93.2585 210.068 92.6063 210.251 91.9041C210.423 91.0963 210.529 90.2757 210.567 89.4506C210.574 89.4114 210.574 89.3712 210.567 89.3319C210.57 89.2924 210.57 89.2527 210.567 89.2132C210.567 89.1077 210.594 89.0022 210.602 88.9054C210.611 88.8087 210.602 88.7031 210.602 88.5976C210.646 87.8721 210.699 87.2785 210.765 86.8388C210.824 86.4145 210.974 86.008 211.205 85.6473C211.461 85.2693 211.828 84.9804 212.256 84.8207L213.619 84.2623C213.866 84.1453 214.135 84.0799 214.409 84.0701C214.682 84.0602 214.955 84.1062 215.21 84.2051C215.47 84.3341 215.702 84.5132 215.892 84.732C216.082 84.9509 216.227 85.2051 216.318 85.4802C216.437 85.7307 216.502 86.0034 216.509 86.2806C216.516 86.5579 216.465 86.8335 216.358 87.0895C216.077 87.6179 215.606 88.019 215.039 88.2107L213.953 88.6504L215.272 91.8162L216.415 91.3457C217.373 90.9743 218.232 90.3841 218.921 89.6221C219.51 88.9415 219.869 88.0919 219.946 87.195C220.01 86.1726 219.826 85.1498 219.409 84.2139C219.044 83.2361 218.453 82.358 217.686 81.6505C217.009 81.0458 216.158 80.6729 215.254 80.5865C214.236 80.5106 213.215 80.6874 212.282 81.1009L211.134 81.567C210.217 81.9221 209.403 82.5028 208.769 83.2554V83.2554Z" fill="white"/>
<path d="M84.3232 132.122H95.6409L89.982 119.824L84.3232 132.122Z" fill="white"/>
<path d="M66.1161 90.4138L70.4294 92.7661L71.3572 93.2718L69.8842 95.9759L68.9521 95.4658L64.6387 93.1135C60.0074 102.039 57.4849 111.908 57.2651 121.962H63.2493V125.039H57.2651C57.5034 135.892 60.4232 146.517 65.7643 155.967L70.8955 152.92L72.4696 155.558L67.3384 158.632C73.1045 167.821 81.0231 175.466 90.4089 180.906L93.2713 175.665L95.9754 177.138L93.1086 182.375C102.037 187.004 111.907 189.527 121.961 189.748V183.764H125.039V189.748C135.89 189.51 146.514 186.59 155.962 181.249L152.92 176.114L155.558 174.544L158.6 179.675C167.787 173.908 175.431 165.989 180.871 156.605L175.63 153.742L177.107 151.038L182.352 153.905C186.987 144.974 189.512 135.099 189.735 125.039H183.746V121.962H189.735C189.495 111.109 186.575 100.485 181.236 91.0338L177.01 93.5444L176.1 94.0808L174.53 91.4427L175.436 90.9063L179.657 88.4001C173.892 79.2099 165.973 71.5642 156.587 66.1254L154.234 70.4387L153.724 71.3709L151.025 69.8935L151.535 68.9614L153.887 64.648C144.96 60.0187 135.092 57.4963 125.039 57.2744V63.2586H121.961V57.2744C111.109 57.5141 100.484 60.4339 91.0333 65.7736L93.5395 69.9991L94.0803 70.9092L91.4422 72.4789L90.9058 71.5731L88.3995 67.3477C79.2081 73.1119 71.5596 81.0289 66.1161 90.4138V90.4138ZM157.717 102.624C166.282 101.67 171.708 104.11 171.708 104.11V116.386C171.708 116.386 168.85 112.82 161.999 112.82C155.149 112.82 152.009 118.686 152.009 124.252C152.009 129.322 155.149 135.605 161.999 135.605C168.85 135.605 171.708 132.03 171.708 132.03V144.307C171.708 144.307 166.282 146.734 157.717 145.78C149.151 144.825 140.569 138.085 140.309 124.512C140.309 124.406 140.309 124.305 140.309 124.2C140.309 124.094 140.309 123.997 140.309 123.892C140.56 110.319 149.112 103.578 157.717 102.624V102.624ZM140.569 89.9566V102.453H130.016V153.672L117.547 154.956V102.54L105.904 102.453L107.28 89.9566H140.569ZM91.0773 102.624L111.162 143.075L101.542 146.4L99.2599 139.927H80.6918L78.4054 146.4L68.8202 143.075L88.9052 102.624H91.1036H91.0773Z" fill="white"/>
<path d="M183.729 154.639C183.257 155.551 182.766 156.451 182.256 157.339C176.682 166.977 168.832 175.104 159.392 181.007C158.513 181.552 157.633 182.076 156.754 182.581C147.059 188.053 136.16 191.039 125.03 191.274C124.516 191.274 124.006 191.274 123.491 191.274C122.977 191.274 122.463 191.274 121.952 191.274C111.639 191.057 101.513 188.477 92.3526 183.733C91.438 183.258 90.5381 182.766 89.6529 182.256C80.013 176.684 71.8862 168.834 65.9844 159.392C65.4391 158.513 64.9159 157.633 64.4103 156.754C58.939 147.059 55.9526 136.16 55.7176 125.03H54.1787C55.0009 162.553 85.7748 192.822 123.491 192.822C161.208 192.822 191.991 162.562 192.813 125.039H191.274C191.054 135.353 188.473 145.479 183.729 154.639V154.639Z" fill="#1E3A83"/>
<path d="M123.5 54.1699C85.7831 54.1699 55.0092 84.4381 54.187 121.961H55.7259C55.944 111.648 58.5236 101.522 63.2666 92.3614C63.7415 91.4512 64.2295 90.5498 64.744 89.6617C70.3159 80.0218 78.1663 71.895 87.6078 65.9932C88.4872 65.4524 89.3666 64.9247 90.2459 64.4191C99.9406 58.9568 110.836 55.9767 121.961 55.744C122.471 55.744 122.985 55.744 123.5 55.744C124.014 55.744 124.524 55.744 125.039 55.744C135.351 55.9609 145.476 58.5423 154.634 63.2891C155.549 63.761 156.45 64.252 157.338 64.762C166.976 70.3365 175.102 78.1864 181.007 87.6259C181.547 88.5053 182.075 89.3846 182.576 90.264C188.049 99.9588 191.037 110.857 191.273 121.988H192.812C191.99 84.4381 161.212 54.1699 123.5 54.1699Z" fill="#1E3A83"/>
<path d="M125.039 189.735V191.273C136.167 191.038 147.065 188.051 156.758 182.581L155.958 181.235C146.511 186.576 135.889 189.496 125.039 189.735V189.735Z" fill="#1E3A83"/>
<path d="M182.361 153.892L183.729 154.639C188.473 145.479 191.054 135.353 191.274 125.039H189.735C189.513 135.093 186.991 144.963 182.361 153.892Z" fill="#1E3A83"/>
<path d="M67.3386 158.631L65.9932 159.431C71.895 168.873 80.0218 176.723 89.6617 182.295L90.4091 180.923C81.0213 175.478 73.1025 167.826 67.3386 158.631V158.631Z" fill="#1E3A83"/>
<path d="M93.1088 182.374L92.3613 183.746C101.521 188.49 111.648 191.07 121.961 191.287V189.748C111.907 189.526 102.037 187.003 93.1088 182.374V182.374Z" fill="#1E3A83"/>
<path d="M158.609 179.661L159.405 181.007C168.845 175.103 176.695 166.977 182.269 157.338L180.892 156.591C175.449 165.977 167.801 173.895 158.609 179.661Z" fill="#1E3A83"/>
<path d="M57.265 125.039H55.7261C55.9624 136.169 58.9503 147.068 64.4231 156.763L65.7686 155.967C60.4259 146.517 57.5045 135.892 57.265 125.039V125.039Z" fill="#1E3A83"/>
<path d="M88.3907 67.3386L87.5904 65.9932C78.1489 71.895 70.2985 80.0217 64.7266 89.6616L66.0984 90.4135C71.5433 81.0244 79.1949 73.1041 88.3907 67.3386V67.3386Z" fill="#1E3A83"/>
<path d="M153.887 64.6391L154.635 63.2716C145.475 58.5309 135.35 55.9556 125.039 55.7441V57.2831C135.091 57.4995 144.959 60.0159 153.887 64.6391Z" fill="#1E3A83"/>
<path d="M121.961 57.2655V55.7441C110.831 55.9808 99.933 58.967 90.2373 64.4368L91.0331 65.7822C100.482 60.4363 111.107 57.5105 121.961 57.2655V57.2655Z" fill="#1E3A83"/>
<path d="M189.735 121.961H191.273C191.037 110.831 188.049 99.932 182.576 90.2373L181.235 91.0332C186.575 100.484 189.494 111.109 189.735 121.961V121.961Z" fill="#1E3A83"/>
<path d="M64.6386 93.1171L63.2667 92.3652C58.5237 101.526 55.9441 111.652 55.7261 121.965H57.265C57.4847 111.912 60.0072 102.043 64.6386 93.1171Z" fill="#1E3A83"/>
<path d="M179.657 88.3906L181.007 87.5904C175.102 78.151 166.976 70.301 157.338 64.7266L156.586 66.0984C165.975 71.5421 173.894 79.1941 179.657 88.3906Z" fill="#1E3A83"/>
<path d="M125.039 63.2496V62.2031C124.524 62.2031 124.014 62.2031 123.5 62.2031C122.985 62.2031 122.471 62.2031 121.961 62.2031V63.2496H125.039Z" fill="#1E3A83"/>
<path d="M123.5 62.1809C124.014 62.1809 124.524 62.1809 125.039 62.1809V57.2432C124.524 57.2432 124.014 57.2432 123.5 57.2432C122.985 57.2432 122.471 57.2432 121.961 57.2432V62.1809C122.462 62.1897 122.985 62.1809 123.5 62.1809Z" fill="#1E3A83"/>
<path d="M123.5 57.2479C124.014 57.2479 124.524 57.2479 125.039 57.2479V55.7441C124.524 55.7441 124.014 55.7441 123.5 55.7441C122.985 55.7441 122.471 55.7441 121.961 55.7441V57.2831C122.462 57.2567 122.985 57.2479 123.5 57.2479Z" fill="#1E3A83"/>
<path d="M121.961 183.751V189.735C122.471 189.735 122.985 189.735 123.5 189.735C124.014 189.735 124.524 189.735 125.039 189.735V183.751H121.961Z" fill="#1E3A83"/>
<path d="M123.5 189.752C122.985 189.752 122.471 189.752 121.961 189.752V191.291C122.471 191.291 122.985 191.291 123.5 191.291C124.014 191.291 124.524 191.291 125.039 191.291V189.752C124.524 189.748 124.014 189.752 123.5 189.752Z" fill="#1E3A83"/>
<path d="M63.2496 121.961H62.1988C62.1988 122.471 62.1988 122.985 62.1988 123.5H61.1567V125.039H63.2672L63.2496 121.961Z" fill="#1E3A83"/>
<path d="M62.1988 121.961H61.1392V123.5H62.1812C62.1812 122.985 62.1856 122.471 62.1988 121.961Z" fill="#1E3A83"/>
<path d="M183.746 125.039H185.861V123.5H184.819C184.819 122.985 184.819 122.471 184.797 121.961H183.746V125.039Z" fill="#1E3A83"/>
<path d="M185.861 123.5V121.961H184.797C184.797 122.471 184.819 122.985 184.819 123.5H185.861Z" fill="#1E3A83"/>
<path d="M94.0803 70.9004L93.5395 69.9902C92.6425 70.4944 91.7632 71.0191 90.9014 71.5643L91.4378 72.4701L94.0803 70.9004Z" fill="#1E3A83"/>
<path d="M93.5394 69.9901L91.0332 65.7646C90.1538 66.2703 89.2744 66.7935 88.395 67.3387L90.9012 71.5641C91.766 71.0189 92.6453 70.4942 93.5394 69.9901Z" fill="#1E3A83"/>
<path d="M91.0331 65.7644L90.2373 64.4189C89.3579 64.9246 88.4785 65.4523 87.5991 65.9931L88.3994 67.3385C89.2568 66.7933 90.1405 66.2701 91.0331 65.7644Z" fill="#1E3A83"/>
<path d="M152.919 176.1L155.962 181.236C156.841 180.73 157.721 180.207 158.6 179.661L155.558 174.53L152.919 176.1Z" fill="#1E3A83"/>
<path d="M155.962 181.235L156.763 182.581C157.642 182.075 158.521 181.552 159.401 181.007L158.605 179.661C157.739 180.206 156.859 180.73 155.962 181.235Z" fill="#1E3A83"/>
<path d="M70.8953 152.915L65.7642 155.962C66.2698 156.841 66.793 157.721 67.3383 158.6L72.4694 155.553L70.8953 152.915Z" fill="#1E3A83"/>
<path d="M65.7644 155.967L64.4189 156.763C64.9246 157.642 65.4478 158.521 65.9931 159.401L67.3385 158.601C66.7933 157.752 66.27 156.873 65.7644 155.967Z" fill="#1E3A83"/>
<path d="M176.104 94.0808L177.015 93.5444C176.51 92.6474 175.986 91.768 175.44 90.9062L174.535 91.4427L176.104 94.0808Z" fill="#1E3A83"/>
<path d="M177.01 93.557L181.236 91.0463C180.73 90.167 180.202 89.2876 179.657 88.4082L175.436 90.9144C175.981 91.7704 176.506 92.6512 177.01 93.557Z" fill="#1E3A83"/>
<path d="M181.236 91.0336L182.577 90.2378C182.075 89.3584 181.548 88.479 181.007 87.5996L179.657 88.3999C180.202 89.2573 180.73 90.141 181.236 91.0336Z" fill="#1E3A83"/>
<path d="M71.3568 93.2713L70.429 92.7656C69.9146 93.645 69.4221 94.5508 68.9517 95.4653L69.8838 95.9754L71.3568 93.2713Z" fill="#1E3A83"/>
<path d="M70.4299 92.7654L66.1165 90.4131C65.6036 91.2925 65.1111 92.1924 64.6392 93.1128L68.9525 95.4651C69.423 94.5506 69.9154 93.6536 70.4299 92.7654Z" fill="#1E3A83"/>
<path d="M66.1163 90.413L64.7444 89.6611C64.23 90.5405 63.742 91.4507 63.2671 92.3608L64.6389 93.1127C65.1108 92.1981 65.6033 91.2982 66.1163 90.413Z" fill="#1E3A83"/>
<path d="M175.639 153.728L180.88 156.591C181.393 155.711 181.887 154.812 182.362 153.891L177.116 151.024L175.639 153.728Z" fill="#1E3A83"/>
<path d="M180.879 156.591L182.256 157.339C182.766 156.459 183.257 155.56 183.729 154.639L182.361 153.892C181.886 154.8 181.392 155.7 180.879 156.591Z" fill="#1E3A83"/>
<path d="M93.2711 175.643L90.4087 180.884C91.2881 181.4 92.188 181.892 93.1084 182.361L95.9752 177.116L93.2711 175.643Z" fill="#1E3A83"/>
<path d="M90.4091 180.884L89.6616 182.256C90.541 182.766 91.4409 183.258 92.3613 183.733L93.1088 182.361C92.2001 181.892 91.3002 181.4 90.4091 180.884Z" fill="#1E3A83"/>
<path d="M153.724 71.3616L154.234 70.4295C153.355 69.9136 152.455 69.4211 151.534 68.9521L151.024 69.8843L153.724 71.3616Z" fill="#1E3A83"/>
<path d="M154.234 70.4294L156.587 66.116C155.707 65.606 154.807 65.1135 153.887 64.6387L151.535 68.952C152.446 69.424 153.346 69.9164 154.234 70.4294Z" fill="#1E3A83"/>
<path d="M156.586 66.1163L157.338 64.7444C156.459 64.2344 155.558 63.7434 154.634 63.2715L153.887 64.6389C154.801 65.1138 155.701 65.6062 156.586 66.1163Z" fill="#1E3A83"/>
<path d="M54.1869 125.039C54.1869 124.529 54.1649 124.014 54.1649 123.5H9.86621C9.86621 124.014 9.86621 124.524 9.86621 125.039H54.1869Z" fill="#1E3A83"/>
<path d="M8.32764 121.961V123.487C8.32764 122.977 8.32763 122.471 8.34962 121.961H8.32764Z" fill="#1E3A83"/>
<path d="M8.32764 125.039H8.34962C8.34962 124.529 8.32764 124.024 8.32764 123.514V125.039Z" fill="#1E3A83"/>
<path d="M9.86655 123.5H8.32764C8.32764 124.01 8.32763 124.516 8.34962 125.026H9.90172C9.90172 124.524 9.86655 124.014 9.86655 123.5Z" fill="#1E3A83"/>
<path d="M8.34962 121.961C8.34962 122.471 8.32764 122.977 8.32764 123.487C8.32764 122.981 8.34082 122.471 8.34962 121.961Z" fill="#1E3A83"/>
<path d="M54.1659 123.5C54.1659 122.985 54.1659 122.471 54.1879 121.961H9.90234C9.90234 122.475 9.90234 122.985 9.90234 123.5H54.1659Z" fill="#1E3A83"/>
<path d="M9.90123 121.961H8.36672C8.36672 122.471 8.34473 122.981 8.34473 123.491H9.88364C9.86605 122.985 9.90123 122.475 9.90123 121.961Z" fill="#1E3A83"/>
<path d="M55.704 123.5H54.165C54.165 124.014 54.165 124.529 54.187 125.039H55.7259C55.7127 124.529 55.704 124.014 55.704 123.5Z" fill="#1E3A83"/>
<path d="M55.7259 121.961H54.187C54.187 122.471 54.165 122.985 54.165 123.5H55.704C55.704 122.985 55.7127 122.471 55.7259 121.961Z" fill="#1E3A83"/>
<path d="M61.1388 125.039V123.5H57.2432C57.2432 124.014 57.2432 124.529 57.2651 125.039H61.1388Z" fill="#1E3A83"/>
<path d="M61.1388 121.961H57.2651C57.2651 122.471 57.2432 122.985 57.2432 123.5H61.1388V121.961Z" fill="#1E3A83"/>
<path d="M57.243 123.5H55.7041C55.7041 124.014 55.7041 124.529 55.7261 125.039H57.265C57.2518 124.529 57.243 124.014 57.243 123.5Z" fill="#1E3A83"/>
<path d="M57.243 123.5C57.243 122.985 57.243 122.471 57.265 121.961H55.7261C55.7261 122.471 55.7041 122.985 55.7041 123.5H57.243Z" fill="#1E3A83"/>
<path d="M192.813 123.5C192.813 124.014 192.813 124.529 192.813 125.039H237.112C237.112 124.524 237.112 124.014 237.112 123.5H192.813Z" fill="#1E3A83"/>
<path d="M238.651 121.961C238.651 122.475 238.651 122.985 238.651 123.5H237.112C237.112 124.014 237.112 124.524 237.112 125.039H238.651C238.651 124.524 238.651 124.014 238.651 123.5C238.651 122.985 238.655 122.475 238.651 121.961Z" fill="#1E3A83"/>
<path d="M237.112 121.961H192.813C192.813 122.471 192.813 122.985 192.813 123.5H237.129C237.129 122.985 237.121 122.475 237.112 121.961Z" fill="#1E3A83"/>
<path d="M237.129 123.5H238.668C238.668 122.985 238.668 122.475 238.668 121.961H237.129C237.12 122.475 237.129 122.985 237.129 123.5Z" fill="#1E3A83"/>
<path d="M191.274 125.039H192.813C192.813 124.529 192.813 124.014 192.813 123.5H191.274C191.292 124.014 191.283 124.529 191.274 125.039Z" fill="#1E3A83"/>
<path d="M191.292 123.5H192.813C192.813 122.985 192.813 122.471 192.813 121.961H191.274C191.283 122.471 191.292 122.985 191.292 123.5Z" fill="#1E3A83"/>
<path d="M185.861 125.039H189.735C189.735 124.529 189.735 124.014 189.735 123.5H185.844L185.861 125.039Z" fill="#1E3A83"/>
<path d="M185.861 123.5H189.735C189.735 122.985 189.735 122.471 189.735 121.961H185.861V123.5Z" fill="#1E3A83"/>
<path d="M189.735 125.039H191.274C191.274 124.529 191.274 124.014 191.274 123.5H189.735C189.735 124.014 189.735 124.529 189.735 125.039Z" fill="#1E3A83"/>
<path d="M189.735 123.5H191.274C191.274 122.985 191.274 122.471 191.274 121.961H189.735C189.735 122.471 189.735 122.985 189.735 123.5Z" fill="#1E3A83"/>
<path d="M199.192 150.321H201.483V136.897H199.153L197.486 137.838V140.314L199.192 139.509V150.321Z" fill="#DE2136"/>
<path d="M208.013 143.959L207.283 143.625L206.843 144.812C206.998 144.773 207.146 144.712 207.283 144.632C207.571 144.462 207.82 144.233 208.013 143.959V143.959Z" fill="#DE2136"/>
<path d="M204.996 144.526C205.427 144.769 205.917 144.889 206.412 144.873C206.561 144.873 206.708 144.852 206.852 144.812L207.291 143.625L208.021 143.959C207.827 144.233 207.577 144.462 207.287 144.632C207.149 144.712 207.001 144.773 206.847 144.812L204.851 150.321H207.287L209.178 145.168C209.204 145.106 209.226 145.045 209.248 144.988C209.27 144.931 209.287 144.869 209.309 144.807C209.514 144.283 209.689 143.747 209.833 143.203C209.951 142.707 210.007 142.199 210 141.69V139.931C210.018 139.34 209.893 138.753 209.635 138.221C209.403 137.758 209.033 137.38 208.575 137.139C208.055 136.881 207.48 136.754 206.9 136.77C206.319 136.754 205.743 136.884 205.225 137.148C204.764 137.39 204.391 137.77 204.156 138.234C203.898 138.768 203.771 139.356 203.787 139.949V141.923C203.773 142.471 203.88 143.016 204.099 143.519C204.285 143.94 204.599 144.293 204.996 144.526ZM206.034 139.87C206.023 139.748 206.038 139.625 206.077 139.509C206.116 139.393 206.18 139.287 206.262 139.197C206.349 139.119 206.451 139.059 206.561 139.02C206.671 138.982 206.788 138.966 206.904 138.973C207.02 138.966 207.136 138.983 207.246 139.021C207.355 139.06 207.456 139.119 207.542 139.197C207.621 139.289 207.681 139.396 207.719 139.511C207.757 139.627 207.771 139.749 207.762 139.87V141.76C207.777 142.007 207.697 142.249 207.537 142.438C207.361 142.591 207.136 142.675 206.902 142.675C206.669 142.675 206.443 142.591 206.267 142.438C206.104 142.254 206.02 142.014 206.034 141.769V139.87Z" fill="#DE2136"/>
<path d="M213.245 144.526C213.677 144.769 214.166 144.889 214.661 144.873C214.81 144.873 214.958 144.852 215.101 144.812L215.54 143.625L216.266 143.959C216.075 144.234 215.825 144.463 215.536 144.632C215.398 144.711 215.25 144.772 215.096 144.812L213.096 150.321H215.536L217.427 145.168C217.453 145.106 217.475 145.045 217.497 144.988C217.519 144.931 217.537 144.869 217.559 144.808C217.764 144.283 217.938 143.747 218.082 143.203C218.198 142.707 218.254 142.199 218.249 141.69V139.931C218.265 139.34 218.14 138.754 217.884 138.221C217.653 137.758 217.282 137.38 216.824 137.139C216.303 136.88 215.726 136.754 215.145 136.77C214.564 136.755 213.988 136.885 213.469 137.148C213.011 137.392 212.64 137.771 212.405 138.234C212.147 138.768 212.02 139.356 212.036 139.949V141.923C212.021 142.471 212.126 143.016 212.344 143.519C212.531 143.941 212.847 144.293 213.245 144.526V144.526ZM214.283 139.87C214.272 139.748 214.287 139.625 214.326 139.509C214.366 139.393 214.429 139.287 214.512 139.197C214.598 139.119 214.698 139.06 214.808 139.021C214.917 138.983 215.033 138.966 215.149 138.973C215.265 138.965 215.381 138.981 215.491 139.019C215.601 139.058 215.701 139.118 215.787 139.197C215.869 139.287 215.931 139.394 215.97 139.51C216.008 139.626 216.022 139.748 216.011 139.87V141.76C216.027 142.007 215.945 142.251 215.782 142.438C215.699 142.519 215.6 142.583 215.491 142.624C215.382 142.665 215.265 142.682 215.149 142.675C215.033 142.681 214.917 142.663 214.808 142.622C214.699 142.582 214.599 142.519 214.516 142.438C214.353 142.254 214.269 142.014 214.283 141.769V139.87Z" fill="#DE2136"/>
<path d="M216.257 143.959L215.531 143.625L215.091 144.812C215.245 144.772 215.393 144.712 215.531 144.632C215.819 144.463 216.066 144.233 216.257 143.959V143.959Z" fill="#DE2136"/>
<path d="M222.711 140.23C222.689 139.909 222.76 139.588 222.918 139.307C222.994 139.206 223.095 139.127 223.21 139.075C223.325 139.024 223.452 139.002 223.578 139.012C223.687 139.003 223.797 139.019 223.9 139.06C224.002 139.1 224.093 139.164 224.167 139.245C224.306 139.46 224.371 139.715 224.351 139.971V140.147C224.339 140.652 224.241 141.151 224.061 141.624C223.828 142.28 223.533 142.913 223.182 143.515L220.478 148.224V150.321H226.669V148.079H223.257L225.389 144.064C225.773 143.359 226.099 142.623 226.365 141.866C226.557 141.319 226.659 140.744 226.669 140.164V139.988C226.688 139.372 226.57 138.759 226.321 138.194C226.103 137.731 225.736 137.353 225.279 137.121C224.729 136.866 224.127 136.744 223.52 136.765C222.911 136.742 222.305 136.875 221.762 137.152C221.295 137.408 220.927 137.812 220.715 138.3C220.467 138.915 220.35 139.576 220.372 140.239V140.718H222.711V140.23Z" fill="#DE2136"/>
<path d="M23.2023 142.539H21.9272V144.764H23.2023V142.539Z" fill="#DE2136"/>
<path d="M23.2023 136.897H21.9272V139.131H23.2023V136.897Z" fill="#DE2136"/>
<path d="M23.2023 148.083H21.9272V150.317H23.2023V148.083Z" fill="#DE2136"/>
<path d="M26.4168 142.539H23.2026V144.764H26.4168V142.539Z" fill="#DE2136"/>
<path d="M26.8784 148.083H23.2026V150.317H26.8784V148.083Z" fill="#DE2136"/>
<path d="M21.9278 136.897H20.9121V150.321H21.9278V148.083H23.2029V144.763H21.9278V142.539H23.2029V139.131H21.9278V136.897Z" fill="#DE2136"/>
<path d="M26.8784 136.897H23.2026V139.131H26.8784V136.897Z" fill="#DE2136"/>
<path d="M34.375 143.448C33.982 143.167 33.5691 142.914 33.1395 142.692H33.1087H33.0735L32.8581 142.582C32.7877 142.543 32.7174 142.512 32.6514 142.481C32.2953 142.301 32.0139 142.147 31.816 142.041C31.62 141.92 31.4497 141.762 31.3148 141.575C31.1808 141.383 31.1115 141.154 31.1169 140.92V140.041C31.1099 139.908 31.1305 139.774 31.1774 139.649C31.2243 139.525 31.2965 139.411 31.3895 139.315C31.4941 139.223 31.6159 139.152 31.7479 139.107C31.88 139.061 32.0197 139.043 32.159 139.051C32.2951 139.043 32.4314 139.065 32.5582 139.115C32.685 139.165 32.7994 139.243 32.8932 139.342C33.0797 139.569 33.1738 139.857 33.1571 140.151V140.916L35.439 140.889V140.133C35.4551 139.516 35.3224 138.903 35.0521 138.348C34.8047 137.861 34.409 137.465 33.9221 137.218C33.3767 136.946 32.7728 136.811 32.1634 136.827C31.5411 136.81 30.924 136.944 30.365 137.218C29.8771 137.463 29.4786 137.855 29.2262 138.339C28.9507 138.883 28.8161 139.488 28.8349 140.098V140.788C28.8155 141.362 28.9347 141.932 29.1823 142.45C29.3944 142.871 29.6943 143.241 30.0616 143.536C30.46 143.839 30.8871 144.103 31.3367 144.323L31.4555 144.38L31.5258 144.416L31.5918 144.455C31.9699 144.64 32.2645 144.798 32.4711 144.93C32.6776 145.052 32.8595 145.212 33.0076 145.401C33.146 145.586 33.2187 145.811 33.2142 146.042V147.212C33.2296 147.5 33.1318 147.782 32.9416 147.999C32.8401 148.097 32.7194 148.174 32.5869 148.223C32.4544 148.272 32.3132 148.293 32.1722 148.285C32.0267 148.293 31.8812 148.272 31.7444 148.222C31.6076 148.172 31.4823 148.095 31.3763 147.995C31.278 147.887 31.202 147.761 31.153 147.623C31.1039 147.486 31.0827 147.34 31.0905 147.194V146.473H28.8085V147.19C28.7915 147.811 28.9306 148.426 29.2131 148.98C29.4742 149.467 29.8776 149.862 30.3694 150.114C30.9333 150.387 31.5545 150.521 32.181 150.505C32.8004 150.522 33.4145 150.387 33.9705 150.114C34.4588 149.864 34.8569 149.467 35.1093 148.98C35.3868 148.425 35.5228 147.81 35.505 147.19V146.073C35.5248 145.519 35.4102 144.969 35.1708 144.468C34.9905 144.07 34.7177 143.72 34.375 143.448Z" fill="#DE2136"/>
<path d="M41.6873 138.023H39.3965V139.096H41.6873V138.023Z" fill="#DE2136"/>
<path d="M41.6873 139.092H39.3965V150.317H41.6873V139.092Z" fill="#DE2136"/>
<path d="M39.3967 138.023H41.6831V139.091H43.8991V136.897H37.1807V139.091H39.3967V138.023Z" fill="#DE2136"/>
<path d="M46.655 148.03H44.3643V150.321H46.655V148.03Z" fill="#DE2136"/>
<path d="M140.565 89.9561H107.284L105.913 102.448L117.556 102.54V154.955L130.021 153.671V102.448H140.565V89.9561Z" fill="#DE2136"/>
<path d="M89.9777 102.624H88.8873L68.8022 143.075L78.4183 146.4L80.7047 139.927H99.2552L101.537 146.4L111.158 143.075L91.0725 102.624H89.9777ZM84.3189 132.123L89.9777 119.811L95.6409 132.123H84.3189Z" fill="#DE2136"/>
<path d="M157.716 102.624C149.112 103.578 140.568 110.318 140.309 123.891C140.309 123.997 140.309 124.098 140.309 124.199C140.309 124.3 140.309 124.406 140.309 124.511C140.56 138.085 149.103 144.825 157.716 145.779C166.33 146.733 171.707 144.306 171.707 144.306V132.03C171.707 132.03 168.849 135.596 161.999 135.596C155.149 135.596 152.009 129.313 152.009 124.243C152.009 118.672 155.149 112.811 161.999 112.811C168.849 112.811 171.707 116.377 171.707 116.377V104.11C171.707 104.11 166.282 101.669 157.716 102.624Z" fill="#DE2136"/>
</g>
<defs>
<clipPath id="clip0_395_4592">
<rect width="247" height="247" fill="white"/>
</clipPath>
</defs>
</svg>
