<svg xmlns="http://www.w3.org/2000/svg" viewBox="0 0 400 300" width="406" height="306" class="illustration styles_illustrationTablet__1DWOa"><g id="_11_handshake_outline" data-name="#11_handshake_outline"><path d="M293.46,150a93.46,93.46,0,1,1-186.92,0,93.46,93.46,0,1,1,186.92,0Z" fill="#fff"></path><path d="M200,244.46A94.36,94.36,0,0,1,105.54,150a94.46,94.46,0,1,1,188.92,0A94.46,94.46,0,0,1,200,244.46Zm0-186.92a92.64,92.64,0,0,0-84.36,54.59,91.65,91.65,0,0,0-8.1,37.87,92.46,92.46,0,1,0,184.92,0,91.65,91.65,0,0,0-8.1-37.87A92.64,92.64,0,0,0,200,57.54Z" fill="#093f68"></path><path d="M143,122.13l21.37,2.94s23.32-7.13,25.79-7.13,12.89,12.62,12.89,12.62,46.36,35.94,48,38.95,0,12.76-10.7,10.84c0,0,0,7.54-4.39,8.64a16.21,16.21,0,0,1-8,0s-.26,5.84-5.47,7.21-7.15-.35-7.15-.35-3.08,8.18-8.84,6.53-11.68-6.71-15-9.73-28.86-21.49-28.86-21.49L131.46,169Z" fill="#ffc9b0"></path><path d="M208.11,203.61a6.39,6.39,0,0,1-1.83-.27c-4.41-1.26-9.43-4.51-15.36-10-3-2.79-26-19.4-28.54-21.25l-31-2.18a1,1,0,0,1-.9-1.23L142,121.89a1,1,0,0,1,1.11-.76l21.15,2.92c3.22-1,23.38-7.11,25.87-7.11s10.32,9,13.59,12.9c8,6.18,46.53,36.16,48.18,39.19,1.09,2,1,6-1.16,8.9-1.18,1.65-3.95,4.19-9.47,3.57-.2,2.33-1.1,7.46-5.09,8.46a17.59,17.59,0,0,1-7.34.25,8.62,8.62,0,0,1-6.08,7c-3.52.92-5.72.53-6.92.07C214.89,199.29,212.31,203.61,208.11,203.61Zm-75.4-35.56,30.09,2.11a1.06,1.06,0,0,1,.52.19c1,.75,25.65,18.55,29,21.57,5.69,5.22,10.46,8.33,14.56,9.5,4.81,1.38,7.61-5.85,7.64-5.92a1,1,0,0,1,.69-.62,1,1,0,0,1,.91.22h0s1.72,1.32,6.22.13,4.72-6.08,4.73-6.29a1,1,0,0,1,.43-.77,1,1,0,0,1,.87-.13,15.56,15.56,0,0,0,7.41,0c3-.74,3.63-5.79,3.64-7.67a1,1,0,0,1,.36-.77,1,1,0,0,1,.81-.21c3.91.7,6.89-.2,8.62-2.61s1.71-5.52,1-6.77c-1.35-2.24-29.29-24.34-47.74-38.64a1.17,1.17,0,0,1-.16-.15c-4.75-5.75-10.74-12.07-12.14-12.26-1.67,0-16.52,4.35-25.48,7.09a1,1,0,0,1-.43,0l-20.48-2.82Z" fill="#093f68"></path><rect x="156.38" y="159.06" width="11.61" height="22.06" rx="5.81" transform="translate(177.96 -64.4) rotate(47.49)" fill="#e28362"></rect><path d="M158.33,180.42a6.81,6.81,0,0,1-5-2.2h0a6.81,6.81,0,0,1,.42-9.62l7.71-7.06a6.81,6.81,0,1,1,9.2,10l-7.71,7.07A6.79,6.79,0,0,1,158.33,180.42Zm-3.54-3.55a4.81,4.81,0,0,0,6.79.29l7.7-7.06a4.81,4.81,0,1,0-6.49-7.09l-7.71,7.07a4.81,4.81,0,0,0-.29,6.79Z" fill="#093f68"></path><rect x="165.7" y="164.14" width="11.61" height="27.14" rx="5.81" transform="translate(186.6 -68.8) rotate(47.49)" fill="#e28362"></rect><path d="M165.79,189.76h-.3a6.81,6.81,0,0,1-4.31-11.82l11.45-10.49a6.8,6.8,0,1,1,9.19,10L170.38,188A6.75,6.75,0,0,1,165.79,189.76Zm11.43-22.1a4.79,4.79,0,0,0-3.24,1.26l-11.45,10.49a4.81,4.81,0,0,0,3,8.35A4.77,4.77,0,0,0,169,186.5L180.47,176a4.81,4.81,0,0,0-3.25-8.35Z" fill="#093f68"></path><rect x="185.78" y="179.09" width="11.61" height="27.14" rx="5.81" transform="translate(200.93 -78.89) rotate(46.81)" fill="#e28362"></rect><path d="M185.94,204.77h-.22a6.78,6.78,0,0,1-4.75-2.14h0a6.82,6.82,0,0,1,.3-9.62l11.32-10.63a6.81,6.81,0,0,1,9.32,9.92l-11.32,10.63A6.77,6.77,0,0,1,185.94,204.77Zm11.31-22.23a4.8,4.8,0,0,0-3.29,1.3l-11.32,10.62a4.82,4.82,0,0,0-.21,6.8h0a4.81,4.81,0,0,0,6.79.21l11.32-10.62a4.81,4.81,0,0,0-3.29-8.31Z" fill="#093f68"></path><rect x="175.77" y="170.73" width="11.61" height="29.93" rx="5.81" transform="translate(186.55 -73.98) rotate(45.46)" fill="#e28362"></rect><path d="M175.05,198.92H175a6.72,6.72,0,0,1-4.8-2,6.81,6.81,0,0,1,.08-9.62l13.05-12.85a6.81,6.81,0,1,1,9.55,9.7l-13,12.85A6.79,6.79,0,0,1,175.05,198.92Zm13.06-24.46a4.81,4.81,0,0,0-3.38,1.38l-13,12.85a4.8,4.8,0,0,0,3.33,8.23,4.9,4.9,0,0,0,3.41-1.38l13.06-12.85a4.8,4.8,0,0,0,.05-6.79,4.75,4.75,0,0,0-3.39-1.44Z" fill="#093f68"></path><path d="M262.59,119.59s-23,3.56-26.34,3S211,111.91,206.08,110.26s-14.27,2.53-18.66,6.2-16.73,16.84-15.09,24.8,11.8,2.74,19.76-7.68l11-3L248.32,167l12.07-1.36Z" fill="#e28362"></path><path d="M248.32,168a1,1,0,0,1-.63-.22l-44.86-36.16-10.16,2.79c-6.1,7.9-13.09,12.53-17.45,11.53-1.4-.32-3.21-1.36-3.87-4.52-1.86-9,11.92-22.83,15.43-25.77,4.61-3.86,14.3-8.15,19.61-6.38,2.16.72,7.41,3,13,5.4,6.81,3,15.28,6.61,17,6.91,2.29.38,16.81-1.6,26-3a1,1,0,0,1,.83.24,1,1,0,0,1,.33.79l-2.2,46.1a1,1,0,0,1-.89,1L248.43,168Zm-45.26-38.48a1,1,0,0,1,.63.22L248.62,166l10.81-1.22,2.1-44c-5.12.78-22.43,3.33-25.44,2.83-1.87-.31-8.15-3-17.52-7-5.52-2.39-10.74-4.65-12.81-5.34-4.59-1.53-13.55,2.54-17.7,6-4.3,3.6-16.27,16.45-14.75,23.83.36,1.72,1.13,2.69,2.35,3,3.55.81,10.12-3.84,15.63-11.06a1,1,0,0,1,.53-.36l11-3A.84.84,0,0,1,203.06,129.56Z" fill="#093f68"></path><path d="M240.37,181.35a1,1,0,0,1-.63-.22L218.61,164a1,1,0,0,1,1.26-1.55L241,179.57a1,1,0,0,1,.14,1.41A1,1,0,0,1,240.37,181.35Z" fill="#093f68"></path><path d="M228,190a1,1,0,0,1-.59-.19l-22.22-16.33a1,1,0,0,1-.21-1.39,1,1,0,0,1,1.39-.22l22.22,16.32A1,1,0,0,1,228,190Z" fill="#093f68"></path><path d="M215.4,196.85a1,1,0,0,1-.67-.26L197,180.4A1,1,0,0,1,197,179a1,1,0,0,1,1.41-.06l17.7,16.18a1,1,0,0,1-.68,1.74Z" fill="#093f68"></path><path d="M223.65,140.39c-9.13,0-20.62-8.6-21.19-9a1,1,0,1,1,1.2-1.6c.16.12,15.8,11.83,23.92,7.81a1,1,0,0,1,.89,1.79A10.71,10.71,0,0,1,223.65,140.39Z" fill="#093f68"></path><path d="M148.66,118.1l-.67,4.71-6.64,46.86-.57,4-31.85-2.57A94.15,94.15,0,0,1,106.54,150a93.15,93.15,0,0,1,8.18-38.28Z" fill="#68e1fd"></path><path d="M140.78,174.68h-.08l-31.85-2.57a1,1,0,0,1-.89-.77A95.51,95.51,0,0,1,105.54,150a93.75,93.75,0,0,1,8.27-38.69,1,1,0,0,1,1.1-.58l33.93,6.39a1,1,0,0,1,.81,1.12l-7.88,55.58A1,1,0,0,1,140.78,174.68Zm-31-4.51,30.18,2.44,7.6-53.7-32.21-6.06A91.59,91.59,0,0,0,107.54,150,92.88,92.88,0,0,0,109.75,170.17Z" fill="#093f68"></path><circle cx="126.74" cy="163.28" r="4.22" fill="#093f68"></circle><path d="M126.74,168.49a5.22,5.22,0,1,1,5.22-5.22A5.22,5.22,0,0,1,126.74,168.49Zm0-8.43a3.22,3.22,0,1,0,3.22,3.21A3.22,3.22,0,0,0,126.74,160.06Z" fill="#093f68"></path><path d="M293.46,150a94.15,94.15,0,0,1-2.39,21.11l-31.85,2.57-1.1-7.74-6.35-44.8-.43-3,33.94-6.38A93.15,93.15,0,0,1,293.46,150Z" fill="#68e1fd"></path><path d="M259.22,174.68a1,1,0,0,1-1-.86l-7.88-55.58a1,1,0,0,1,.81-1.12l33.93-6.39a1,1,0,0,1,1.1.58A93.75,93.75,0,0,1,294.46,150,95.51,95.51,0,0,1,292,171.33a1,1,0,0,1-.89.77l-31.85,2.57Zm-6.75-55.77,7.61,53.7,30.17-2.44A92.88,92.88,0,0,0,292.46,150a91.59,91.59,0,0,0-7.78-37.15Zm38.6,52.2h0Z" fill="#093f68"></path><circle cx="273.26" cy="163.28" r="4.22" fill="#093f68"></circle><path d="M273.26,168.49a5.22,5.22,0,1,1,5.22-5.22A5.22,5.22,0,0,1,273.26,168.49Zm0-8.43a3.22,3.22,0,1,0,3.22,3.21A3.22,3.22,0,0,0,273.26,160.06Z" fill="#093f68"></path></g></svg>